<svg width="20" height="20" viewBox="0 0 20 20" fill="none" xmlns="http://www.w3.org/2000/svg"><path d="M9.524 3.81H6.667L10.477 0l3.809 3.81h-2.857v4.219a8.3 8.3 0 0 0-1.905 1.61zM8 13.333H6.19l-.666-1.904H2.476l-.666 1.904H0l3.048-8.571h1.904zm-2.905-3.19L4 6.667l-1.095 3.476zM20 9.523l-3.81-3.809v2.857a6.425 6.425 0 0 0-6.666 5.877 2.863 2.863 0 0 0-1.743 3.647 2.863 2.863 0 0 0 3.648 1.743 2.867 2.867 0 0 0 1.742-3.648 2.85 2.85 0 0 0-1.742-1.742c.447-3.81 4.257-4 4.714-4v2.857z" fill="currentColor"/></svg>