<svg viewBox="0 0 20 20" fill="none" xmlns="http://www.w3.org/2000/svg"><path d="M10.95 15.95h-2v-2h2zm0-3h-2c0-3.25 3-3 3-5 0-1.1-.9-2-2-2s-2 .9-2 2h-2c0-2.21 1.79-4 4-4s4 1.79 4 4c0 2.5-3 2.75-3 5m9-3c0 5.18-3.95 9.45-9 9.95v-2.01c3.95-.49 7-3.86 7-7.94s-3.05-7.45-7-7.94V0c5.05.5 9 4.77 9 9.95M8.95 0v2.01c-1.46.18-2.8.76-3.91 1.62L3.62 2.21C5.1 1 6.95.2 8.95 0M2.01 8.95H0c.2-2 1-3.85 2.21-5.33l1.42 1.43a7.9 7.9 0 0 0-1.62 3.9m6.94 8.94v2.01c-2-.2-3.85-.99-5.33-2.21l1.42-1.42c1.11.86 2.45 1.44 3.91 1.62M0 10.95h2.01c.18 1.46.76 2.8 1.62 3.91l-1.42 1.42A10 10 0 0 1 0 10.95" fill="currentColor"/></svg>