<svg width="20" height="20" viewBox="0 0 20 20" fill="none" xmlns="http://www.w3.org/2000/svg"><path d="M11.27 20H7.73c-.25 0-.46-.18-.5-.42l-.37-2.65c-.63-.25-1.17-.59-1.69-.99l-2.49 1.01c-.22.08-.49 0-.61-.22l-2-3.46a.493.493 0 0 1 .12-.64l2.11-1.66-.07-.97.07-1L.19 7.37a.493.493 0 0 1-.12-.64l2-3.46c.12-.22.39-.31.61-.22l2.49 1c.52-.39 1.06-.73 1.69-.98L7.23.42c.04-.24.25-.42.5-.42h4c.25 0 .46.18.5.42l.37 2.65c.63.25 1.17.59 1.69.98l2.49-1c.22-.09.49 0 .61.22l2 3.46c.13.22.07.49-.12.64L17.16 9l.07 1v.19c-.5-.12-1-.19-1.5-.19-.17 0-.34 0-.5.03 0-.62-.1-1.24-.3-1.83l2.11-1.55-.75-1.3-2.41 1.04a5.42 5.42 0 0 0-3.03-1.77L10.48 2h-1.5l-.37 2.61c-1.2.25-2.26.89-3.03 1.78L3.17 5.35l-.75 1.3L4.53 8.2a5.55 5.55 0 0 0 0 3.6l-2.12 1.56.75 1.3 2.43-1.04c.77.88 1.82 1.52 3.01 1.76L8.97 18h1.11c.26.75.65 1.42 1.19 2m-1.18-6.04c-.12.04-.24.04-.36.04-2.21 0-4-1.79-4-4s1.79-4 4-4 4 1.79 4 4c0 .12 0 .24-.04.36a6.05 6.05 0 0 0-3.6 3.6M11.73 10a2 2 0 1 0-4-.001 2 2 0 0 0 4 .001m5 3h2v6h-2m-4-6h2v6h-2z" fill="currentColor"/></svg>