<svg width="20" height="20" viewBox="0 0 20 20" fill="none" xmlns="http://www.w3.org/2000/svg"><path d="M15 20v-2h3v-3h2v3.5c0 .39-.16.74-.46 1.04s-.65.46-1.04.46zM5 20H1.5c-.39 0-.74-.16-1.04-.46S0 18.89 0 18.5V15h2v3h3zM15 0h3.5c.39 0 .74.16 1.04.46s.46.65.46 1.04V5h-2V2h-3zM5 0v2H2v3H0V1.5C0 1.11.16.76.46.46S1.11 0 1.5 0zm6 15.25 4-2.3V8.36l-4 2.3zm-1-6.33 4-2.29-4-2.35-4 2.35zm-5 4.03 4 2.3v-4.59l-4-2.3zm11.23-7.36c.5.32.77.75.77 1.32v6.32c0 .57-.27 1-.77 1.32l-5.48 3.18q-.75.48-1.5 0l-5.48-3.18c-.5-.32-.77-.75-.77-1.32V6.91c0-.57.27-1 .77-1.32l5.48-3.18c.25-.13.5-.19.75-.19s.5.06.75.19z" fill="currentColor"/></svg>