<svg viewBox="0 0 20 20" fill="none" xmlns="http://www.w3.org/2000/svg"><path d="M5.824 18.332a9.3 9.3 0 0 0 3.718.754V17.65q-3.45-.034-5.778-2.403-2.329-2.369-2.33-5.704 0-.456.065-.91.065-.455.141-.916l4.885 4.885h.988V9.543H5.479v-2.03h2.032a1 1 0 0 0 .73-.296 1 1 0 0 0 .296-.734V4.475h2.012q.84 0 1.437-.597.595-.597.595-1.434v-.431a7.9 7.9 0 0 1 3.25 2.401 8.05 8.05 0 0 1 1.665 3.648h1.466q-.525-3.443-3.175-5.75Q13.132 0 9.546 0a9.25 9.25 0 0 0-3.722.753 9.6 9.6 0 0 0-3.03 2.042 9.8 9.8 0 0 0-2.043 3.03 9.25 9.25 0 0 0-.75 3.716q0 1.978.75 3.72a9.6 9.6 0 0 0 2.044 3.029 9.8 9.8 0 0 0 3.03 2.042" fill="currentColor"/><path d="m10.668 13.95 1.511 1.512.893-.892-1.509-1.51a1.73 1.73 0 0 1-.526-1.263q0-.735.525-1.26t1.26-.524q.736 0 1.263.525l1.507 1.51.893-.892-1.51-1.513a2.94 2.94 0 0 0-2.152-.894 2.93 2.93 0 0 0-2.152.893 2.94 2.94 0 0 0-.895 2.155q0 1.26.892 2.154" fill="currentColor"/><path d="m13.688 11.847-.816.816 3.216 3.217.815-.817z" fill="currentColor"/><path d="m14.182 15.678-.893.893 1.512 1.512a2.94 2.94 0 0 0 2.151.894 2.93 2.93 0 0 0 2.153-.892A2.94 2.94 0 0 0 20 15.93a2.94 2.94 0 0 0-.893-2.154l-1.512-1.51-.892.892 1.51 1.51q.525.524.525 1.262 0 .733-.525 1.26-.525.525-1.26.525t-1.262-.527l-1.508-1.508z" fill="currentColor"/></svg>