<svg width="20" height="20" viewBox="0 0 20 20" fill="none" xmlns="http://www.w3.org/2000/svg"><path d="M10.005 0C15.5 0 20 4.5 20 10.006c0 .585-.062 1.16-.154 1.715a5.7 5.7 0 0 0-1.921-.637c.051-.35.082-.708.082-1.078 0-.699-.102-1.367-.267-2.004h-3.38c.083.657.144 1.316.144 2.004 0 .534-.041 1.068-.103 1.592A6 6 0 0 0 11.813 14H8.095c.41 1.428 1.078 2.764 1.91 3.966.4-.575.75-1.182 1.068-1.819a6 6 0 0 0-.072.853c0 1.027.258 2.002.72 2.845-.555.092-1.13.154-1.716.154C4.499 20 0 15.512 0 10.006S4.51 0 10.005 0m7.276 13.04c.07 0 .14.07.14.14l.14.93c.21.08.43.22.64.36l.85-.36c.07 0 .21 0 .21.07l.71 1.21c.07.07 0 .14-.07.21l-.78.57v.7l.78.57c.07 0 .07.07 0 .14l-.71 1.21c-.07.07-.14.07-.21.07l-.85-.28c-.21.15-.36.22-.57.36l-.14.92c0 .07-.07.14-.14.14h-1.42c-.07 0-.14-.07-.21-.14l-.14-.92c-.21-.08-.43-.22-.57-.36l-.85.36c-.07 0-.14 0-.21-.07l-.71-1.21c-.07-.07 0-.14.07-.21l.78-.57v-.71l-.78-.57c-.07-.07-.07-.14-.07-.21l.71-1.21c.07-.07.14-.07.21-.07l.85.36c.21-.15.36-.22.57-.36l.14-.93c0-.07.07-.14.21-.14zm-14.2.961a8 8 0 0 0 4.315 3.564c-.596-1.109-1.048-2.31-1.397-3.564zm13.41 1.379c-.57 0-1.07.5-1.07 1.07s.5 1.07 1.07 1.07 1.07-.5 1.07-1.07-.5-1.07-1.07-1.07M2.26 8.002a8 8 0 0 0-.257 2.004c0 .688.092 1.355.257 1.992h3.38a16 16 0 0 1-.145-1.992c0-.688.062-1.347.145-2.004zm5.403 0a13 13 0 0 0-.165 2.004c0 .678.062 1.335.165 1.992h4.674c.092-.657.164-1.304.164-1.992s-.072-1.357-.164-2.004zm-.267-5.567A7.92 7.92 0 0 0 3.08 5.999h2.918c.35-1.253.8-2.445 1.397-3.564m2.609-.4a13.5 13.5 0 0 0-1.91 3.964h3.821c-.41-1.428-1.09-2.773-1.911-3.965m2.589.4a16 16 0 0 1 1.376 3.564h2.948a7.98 7.98 0 0 0-4.324-3.564" fill="currentColor"/></svg>