<svg width="20" height="20" viewBox="0 0 20 20" fill="none" xmlns="http://www.w3.org/2000/svg"><path d="M18 14V2H6v12zm2 0c0 1.1-.9 2-2 2H6c-1.1 0-2-.9-2-2V2c0-1.1.9-2 2-2h12c1.1 0 2 .9 2 2zm-6 4v2H2c-1.1 0-2-.9-2-2V5h2v13zM12.2 3q-1.35 0-2.1.6c-.5.4-.8 1-.8 1.8h1.9c0-.3.1-.5.3-.7.2-.1.4-.2.7-.2s.6.1.8.3.3.4.3.8c0 .3-.1.6-.2.8s-.4.4-.6.6c-.5.3-.9.6-1 .9-.4.2-.5.6-.5 1.1h2c0-.3 0-.6.1-.7.1-.2.3-.4.5-.5.4-.2.8-.5 1.1-.9.3-.5.5-.9.5-1.4 0-.8-.3-1.4-.8-1.8-.5-.5-1.3-.7-2.2-.7M11 10v2h2v-2z" fill="currentColor"/></svg>