<svg width="18" height="11" viewBox="0 0 18 11" fill="none" xmlns="http://www.w3.org/2000/svg">
<path d="m5.525 3.528 2.37 2.035q.427.023.64.244a.73.73 0 0 1 .214.541.73.73 0 0 1-.244.564q-.237.213-.8.213H5.928q-.564 0-.808-.213a.76.76 0 0 1-.236-.58q0-.273.168-.48a.87.87 0 0 1 .472-.289L4.359 4.557 3.17 5.563q.36.092.51.282.16.19.16.488a.76.76 0 0 1-.235.579q-.237.213-.8.213H1.043q-.564 0-.808-.213A.75.75 0 0 1 0 6.34q0-.319.213-.533.214-.221.64-.244L3.17 3.521 1.12 1.768q-.404-.03-.617-.244a.76.76 0 0 1-.206-.54q0-.344.236-.557.244-.222.808-.221h1.463q.564 0 .8.22a.7.7 0 0 1 .244.55q0 .45-.426.731l.945.785.93-.8q-.42-.297-.42-.686 0-.366.236-.58.244-.22.808-.22H7.37q.564 0 .8.22.244.214.244.565a.74.74 0 0 1-.213.533q-.206.213-.617.244zM12.14.206v.526a3 3 0 0 1 .937-.55A3.3 3.3 0 0 1 14.197 0q1.388 0 2.195.861.64.686.64 1.799v2.903q.495 0 .732.221.236.213.236.564a.73.73 0 0 1-.244.564q-.236.213-.8.213h-1.41q-.564 0-.808-.213a.75.75 0 0 1-.236-.572q0-.342.236-.556.237-.22.732-.22v-2.95q0-.51-.274-.747-.359-.305-1.075-.305-.54 0-.953.214-.404.205-1.028.884v2.903q.601 0 .777.114a.74.74 0 0 1 .373.671.73.73 0 0 1-.243.564q-.237.213-.8.213H10.47q-.564 0-.808-.213a.75.75 0 0 1-.236-.572q0-.426.366-.663.182-.114.785-.114V1.768q-.496 0-.732-.221A.74.74 0 0 1 9.61.983q0-.343.236-.556.244-.222.808-.221zM7.628 10.448H1.105V9.023h6.523zm9.366 0h-6.523V9.023h6.523z" fill="currentColor"/>
</svg>
