<svg width="20" height="20" viewBox="0 0 20 20" fill="none" xmlns="http://www.w3.org/2000/svg"><path d="M18.182 9.09c0 5.046-3.491 9.765-8.182 10.91-4.69-1.145-8.182-5.864-8.182-10.91V3.637L10 0l8.182 3.636zM10 18.183c3.41-.91 6.364-4.964 6.364-8.891V4.818L10 1.982 3.636 4.818v4.473c0 3.927 2.955 7.982 6.364 8.89m0-13.637a2.727 2.727 0 0 1 2.727 2.728c0 1.19-.754 2.2-1.818 2.572v1.973h1.818v1.818H10.91v1.819H9.091v-5.61a2.72 2.72 0 0 1-1.818-2.572A2.727 2.727 0 0 1 10 4.545m0 1.819a.91.91 0 1 0 0 1.818.91.91 0 0 0 0-1.818" fill="currentColor"/></svg>