<svg width="20" height="20" viewBox="0 0 20 20" fill="none" xmlns="http://www.w3.org/2000/svg"><path d="M10.97 13.184c.285.19.665.19.95 0l4.753-2.756v.285c.666 0 1.33.095 1.901.38v-1.71l.95-.571c.476-.285.571-.856.38-1.33L18.48 5.104c-.095-.19-.19-.38-.38-.475L10.589.447c-.19-.095-.38-.19-.57-.19s-.38.095-.57.19L2.035 4.63c-.19.095-.38.19-.475.38L.134 7.48c-.285.475-.095 1.046.38 1.33.285.19.666.19.95 0v5.229c0 .38.19.665.476.855l7.51 4.183c.19.095.38.19.57.19s.38-.095.57-.19l.855-.476c-.285-.57-.38-1.235-.475-1.9m-1.901 0-5.703-3.233V7.101l5.703 3.232zm8.65-9.126-5.989 3.422-.57-.95 5.988-3.422zm-7.7 1.046V2.348l5.704 3.137zM20 14.42l-1.996 1.996L20 18.412l-1.33 1.33-1.997-1.995-1.996 1.996-1.33-1.33 1.995-1.997-1.996-1.996 1.331-1.33 1.996 1.995 1.996-1.996z" fill="currentColor"/></svg>