<svg width="20" height="20" viewBox="0 0 20 20" fill="none" xmlns="http://www.w3.org/2000/svg"><path d="M10.715 12.878c.279.186.65.186.929 0l4.642-2.692v.278c.65 0 1.3.093 1.857.372V9.164l.928-.557c.465-.278.558-.835.372-1.3l-1.393-2.32c-.093-.186-.186-.372-.371-.465L10.344.437C10.158.344 9.973.25 9.787.25s-.371.093-.557.186L1.988 4.522c-.186.093-.372.186-.464.371L.13 7.307c-.279.465-.093 1.022.371 1.3.279.186.65.186.929 0v5.107c0 .371.185.65.464.835l7.335 4.086c.186.092.371.185.557.185s.371-.093.557-.185l.836-.465c-.279-.557-.372-1.207-.465-1.857m-1.857 0-5.57-3.156V6.936l5.57 3.157zm8.45-8.913-5.85 3.343-.557-.929 5.85-3.342zm-7.52 1.022V2.294l5.57 3.064zm7.428 3.9v2.785H20v1.857h-2.785v2.785h-1.857v-2.785h-2.786v-1.857h2.786V12.32z" fill="currentColor"/></svg>