<svg width="20" height="20" viewBox="0 0 20 20" fill="none" xmlns="http://www.w3.org/2000/svg"><path d="M.485 9.01a.94.94 0 0 1-.352-1.305L1.561 5.24a.9.9 0 0 1 .448-.4L9.464.65a.9.9 0 0 1 .543-.171c.2 0 .39.057.542.171l7.522 4.228a.93.93 0 0 1 .42.438l1.38 2.399a.946.946 0 0 1-.343 1.295l-.952.552v4.723c0 .361-.2.676-.505.838L10.55 19.35a.9.9 0 0 1-.542.171c-.2 0-.39-.057-.543-.17l-7.522-4.228a.94.94 0 0 1-.505-.838V9.01a.97.97 0 0 1-.952 0m9.522-6.484v6.38l5.675-3.19zM3.342 13.723l5.713 3.218v-6.389L3.342 7.344zm13.33 0v-3.066l-4.761 2.761a1 1 0 0 1-.952.01v3.513zm-4.904-2.428 5.98-3.456-.553-.962-5.98 3.456z" fill="currentColor"/></svg>