<svg viewBox="0 0 20 15" fill="none" xmlns="http://www.w3.org/2000/svg"><path d="M9.968 4.398v8.448l6.561-1.277V7.454c0-.173.147-.306.314-.287l.807.128c.142.017.249.14.249.287v4.78a.29.29 0 0 1-.222.283l-7.183 1.583a2.5 2.5 0 0 1-1.053.002l-7.106-1.532a.29.29 0 0 1-.223-.274l-.123-4.856a.286.286 0 0 1 .257-.295l6.036-.544a.28.28 0 0 0 .235-.177l.91-2.263c.117-.292.54-.206.54.11M1.92 1.633.027 5.783c-.093.202.066.43.283.408l7.113-.736c.1-.01.188-.076.229-.17L9.941 0 2.125 1.471a.28.28 0 0 0-.204.162M9.941 0l2.422 5.45a.28.28 0 0 0 .233.168l7.1.585c.214.018.367-.207.278-.407l-1.851-4.16a.28.28 0 0 0-.206-.165z" fill="currentColor"/></svg>