<svg width="20" height="20" viewBox="0 0 20 20" fill="none" xmlns="http://www.w3.org/2000/svg"><path d="M10.667 19.048v-.286a2.567 2.567 0 0 0-2.572-2.572 2.567 2.567 0 0 0-2.571 2.572v.286h-3.62A1.904 1.904 0 0 1 0 17.143v-3.62h.286a2.567 2.567 0 0 0 2.571-2.57A2.567 2.567 0 0 0 .286 8.38H0V4.76a1.91 1.91 0 0 1 1.905-1.904H4.8A3.33 3.33 0 0 1 8.095 0a3.33 3.33 0 0 1 3.295 2.857h2.896c1.057 0 1.905.857 1.905 1.905v2.895a3.33 3.33 0 0 1 2.857 3.295c0 .096 0 .19-.029.277a5.8 5.8 0 0 0-1.943-.677 1.42 1.42 0 0 0-1.362-1.028h-1.428V4.762H9.524V3.333c0-.79-.638-1.428-1.429-1.428-.79 0-1.428.638-1.428 1.428v1.429H1.905V6.78a4.46 4.46 0 0 1 2.857 4.171 4.48 4.48 0 0 1-2.857 4.172v2.019h2.019a4.48 4.48 0 0 1 4.171-2.857c.924 0 1.781.285 2.496.771a5.67 5.67 0 0 0 .657 3.99zm4.571-6.667v2.857h-2.857v1.905h2.857V20h1.905v-2.857H20v-1.905h-2.857v-2.857z" fill="currentColor"/></svg>