<svg width="20" height="20" viewBox="0 0 20 20" fill="none" xmlns="http://www.w3.org/2000/svg"><path d="M18.25 10.125a.53.53 0 0 0-.373.162l-.959.96 1.965 1.964.959-.958a.51.51 0 0 0 0-.739l-1.227-1.226a.5.5 0 0 0-.364-.163m-1.888 1.677-5.818 5.809v1.974h1.975l5.808-5.818zm-7.687 4.965c-.173-.057-.345-.057-.527-.057a2.583 2.583 0 0 0-2.588 2.588v.287H1.917A1.917 1.917 0 0 1 0 17.668v-3.642h.288a2.583 2.583 0 0 0 2.588-2.588A2.583 2.583 0 0 0 .288 8.85H0V5.207C0 4.153.863 3.29 1.917 3.29h2.914A3.35 3.35 0 0 1 8.148.415a3.35 3.35 0 0 1 3.316 2.875h2.914c1.064 0 1.917.863 1.917 1.917v2.914c.345.048.662.163.959.307-.259.134-.518.288-.729.508L15.452 10h-1.074V5.207H9.585V3.77c0-.795-.642-1.437-1.437-1.437-.796 0-1.438.642-1.438 1.437v1.438H1.917V7.24a4.49 4.49 0 0 1 2.876 4.199 4.505 4.505 0 0 1-2.876 4.198v2.032H3.95a4.505 4.505 0 0 1 4.199-2.875c.728 0 1.437.172 2.022.479z" fill="currentColor"/></svg>