<svg width="20" height="20" viewBox="0 0 20 20" fill="none" xmlns="http://www.w3.org/2000/svg"><path d="M17.619 9.524h-1.428v-3.81a1.904 1.904 0 0 0-1.905-1.904h-3.81V2.38a2.381 2.381 0 0 0-4.762.001V3.81h-3.81A1.905 1.905 0 0 0 0 5.714v3.62h1.429A2.56 2.56 0 0 1 4 11.903a2.56 2.56 0 0 1-2.571 2.572H0v3.62A1.905 1.905 0 0 0 1.905 20h3.619v-1.429A2.56 2.56 0 0 1 8.095 16a2.56 2.56 0 0 1 2.572 2.571V20h3.619a1.905 1.905 0 0 0 1.905-1.905v-3.81h1.428a2.38 2.38 0 1 0 0-4.761" fill="currentColor"/></svg>