<svg width="20" height="20" viewBox="0 0 20 20" fill="none" xmlns="http://www.w3.org/2000/svg"><path d="M20 11.5c0 1.76-1.3 3.22-3 3.46V18a2 2 0 0 1-2 2h-3.8v-.3a2.7 2.7 0 0 0-5.4 0v.3H2a2 2 0 0 1-2-2v-3.8h.3C1.79 14.2 3 13 3 11.5S1.79 8.8.3 8.8H0V5a2 2 0 0 1 2-2h3.04c.24-1.7 1.7-3 3.46-3s3.22 1.3 3.46 3H15a2 2 0 0 1 2 2v3.04c1.7.24 3 1.7 3 3.46M15 13h1.5a1.5 1.5 0 1 0 0-3H15V5h-5V3.5a1.5 1.5 0 0 0-3 0V5H2v2.12c1.76.68 3 2.38 3 4.38s-1.25 3.7-3 4.38V18h2.12a4.7 4.7 0 0 1 4.38-3c2 0 3.7 1.25 4.38 3H15z" fill="currentColor"/></svg>