<svg width="20" height="20" viewBox="0 0 20 20" fill="none" xmlns="http://www.w3.org/2000/svg"><path d="M13 13.92c-.33.05-.66.08-1 .08s-.67-.03-1-.08v-3.51l-2.5 2.48c-.5-.39-1-.89-1.39-1.39L9.59 9H6.08C6.03 8.67 6 8.34 6 8s.03-.67.08-1h3.51L7.11 4.5c.19-.25.39-.5.65-.74.24-.26.49-.46.74-.65L11 5.59V2.08c.33-.05.66-.08 1-.08s.67.03 1 .08v3.51l2.5-2.48c.5.39 1 .89 1.39 1.39L14.41 7h3.51c.05.33.08.66.08 1s-.03.67-.08 1h-3.51l2.48 2.5c-.19.25-.39.5-.65.74-.24.26-.49.46-.74.65L13 10.41zM2 16a2 2 0 1 1 4 0 2 2 0 0 1-4 0" fill="currentColor"/></svg>