<svg width="20" height="20" viewBox="0 0 20 20" fill="none" xmlns="http://www.w3.org/2000/svg"><path d="M10 0 1.818 3.636v5.455C1.818 14.136 5.31 18.855 10 20c4.691-1.145 8.182-5.864 8.182-10.91V3.637zm2.073 11.89-1.837 1.837a2.8 2.8 0 0 1-1.981.819 2.8 2.8 0 0 1-1.982-.819 2.81 2.81 0 0 1 0-3.963l1.136-1.128-.009.51c0 .4.064.809.2 1.19l.046.118-.337.337c-.254.255-.4.6-.4.954 0 .364.146.7.4.955.51.51 1.391.51 1.9 0l1.827-1.827c.264-.264.4-.6.4-.955 0-.373-.136-.7-.39-.954a.75.75 0 0 1-.228-.519c0-.19.091-.372.228-.509.272-.281.772-.272 1.027 0 .527.528.818 1.228.818 1.973 0 .755-.29 1.455-.818 1.982m2.563-2.563L13.5 10.454l.01-.509c0-.4-.065-.8-.2-1.181l-.037-.128.327-.336q.398-.382.4-.955c0-.354-.136-.69-.39-.945-.519-.518-1.4-.518-1.91 0L9.873 8.227a1.34 1.34 0 0 0-.4.955c0 .363.136.69.4.945a.8.8 0 0 1 .218.518c0 .2-.09.382-.227.519a.67.67 0 0 1-.51.2.76.76 0 0 1-.518-.2 2.777 2.777 0 0 1 0-3.964l1.837-1.836a2.81 2.81 0 0 1 3.963 0c.528.545.819 1.236.819 1.981s-.291 1.455-.819 1.982" fill="currentColor"/></svg>