<svg width="20" height="20" viewBox="0 0 20 20" fill="none" xmlns="http://www.w3.org/2000/svg"><path d="m2.318 16.446 1.282 1.28L5.236 16.1l-1.29-1.29M10 4.544A5.46 5.46 0 0 0 4.545 10 5.46 5.46 0 0 0 10 15.454 5.46 5.46 0 0 0 15.454 10 5.453 5.453 0 0 0 10 4.545m7.273 6.364H20V9.091h-2.727m-2.51 7.009 1.637 1.627 1.282-1.282-1.627-1.636m1.627-11.173L16.4 2.364 14.764 3.99l1.29 1.29M10.91 0H9.091v2.727h1.818M5.236 3.991 3.6 2.364 2.318 3.636l1.627 1.646zM0 10.909h2.727V9.091H0m10.91 8.182H9.09V20h1.82" fill="currentColor"/></svg>