<svg width="20" height="20" viewBox="0 0 20 20" fill="none" xmlns="http://www.w3.org/2000/svg"><path d="M17.355 5.967a2.61 2.61 0 0 0-2.592 2.324v.012l-2.021.541a2.55 2.55 0 0 0-1.112-.826l-.02-.006V5.81a2.618 2.618 0 1 0-1.945-.006l.018.006v2.139q-.333.127-.612.343l.005-.003-3.84-2.094a2 2 0 0 0 0-.231v.006a2.618 2.618 0 1 0-2.62 2.618 2.56 2.56 0 0 0 1.731-.675L8.07 9.967a2.4 2.4 0 0 0 0 .442v-.01c0 .352.07.7.205 1.024l-.007-.018-2.91 2.826a2.5 2.5 0 0 0-1.07-.24h-.051a2.627 2.627 0 1 0 2.627 2.626 2.5 2.5 0 0 0-.197-1.047l.006.016 2.91-2.826c.334.155.698.234 1.067.233h.005q.372-.003.725-.113l-.017.004.831 1.29c-.302.434-.465.95-.466 1.479v.008a2.627 2.627 0 1 0 2.626-2.627q-.29 0-.572.07l.016-.004-.915-1.389c.19-.31.31-.657.348-1.018l.001-.012 2.028-.541a2.618 2.618 0 1 0 2.12-4.156h-.025z" fill="currentColor"/></svg>