<svg width="20" height="20" viewBox="0 0 20 20" fill="none" xmlns="http://www.w3.org/2000/svg"><path d="M13.81 9.276c0-.562-.067-1.105-.134-1.657h3.22c.075.314.142.638.18.952.686.067 1.343.22 1.972.477C18.77 4.01 14.619 0 9.524 0 4.257 0 0 4.286 0 9.524s4.286 9.524 9.524 9.524a9.3 9.3 0 0 0 2.38-.315 6.3 6.3 0 0 1-1.39-3.304c-.295.58-.619 1.142-.99 1.676-.79-1.143-1.429-2.41-1.82-3.772h2.944a6.2 6.2 0 0 1 .81-1.904H7.294a12.6 12.6 0 0 1-.152-1.905c0-.648.057-1.286.152-1.905h4.457c.086.62.153 1.257.153 1.905 0 .476-.038.952-.095 1.428a6.1 6.1 0 0 1 2-1.676M2.152 11.43a8 8 0 0 1-.247-1.905c0-.657.095-1.295.247-1.905h3.22a16 16 0 0 0-.134 1.905c0 .647.057 1.276.133 1.905zm.781 1.904h2.781c.334 1.19.762 2.334 1.334 3.39a7.63 7.63 0 0 1-4.115-3.39m2.781-7.619h-2.78a7.55 7.55 0 0 1 4.114-3.39c-.572 1.057-1 2.2-1.334 3.39m1.99 0c.391-1.362 1.03-2.638 1.82-3.78.79 1.142 1.428 2.418 1.819 3.78zm8.41 0h-2.81a15 15 0 0 0-1.313-3.39 7.6 7.6 0 0 1 4.123 3.39M20 14.762c0 .78-.238 1.505-.638 2.105l-1.038-1.038c.162-.324.247-.686.247-1.067a2.38 2.38 0 0 0-2.38-2.381v1.428l-2.143-2.142 2.143-2.143v1.428A3.81 3.81 0 0 1 20 14.762m-3.81.952 2.143 2.143L16.191 20v-1.429a3.808 3.808 0 0 1-3.172-5.914l1.038 1.038a2.4 2.4 0 0 0-.248 1.067 2.38 2.38 0 0 0 2.382 2.38z" fill="currentColor"/></svg>