<svg width="20" height="20" viewBox="0 0 20 20" fill="none" xmlns="http://www.w3.org/2000/svg"><path d="M13.81 10c0-.648-.058-1.276-.134-1.905h3.22c.152.61.247 1.248.247 1.905 0 .352-.029.695-.076 1.029a5.5 5.5 0 0 1 1.828.61A9.3 9.3 0 0 0 19.048 10c0-5.238-4.286-9.524-9.524-9.524C4.257.476 0 4.762 0 10s4.286 9.524 9.524 9.524c.562 0 1.105-.057 1.638-.153a5.6 5.6 0 0 1-.686-2.704c0-.277.029-.543.067-.81-.305.6-.638 1.181-1.02 1.724-.79-1.143-1.428-2.41-1.818-3.771h3.543a5.67 5.67 0 0 1 2.466-2.286c.057-.505.095-1.01.095-1.524M9.524 2.41c.79 1.142 1.428 2.419 1.819 3.78H7.705c.39-1.361 1.028-2.638 1.819-3.78m-7.372 9.495A8 8 0 0 1 1.905 10c0-.657.095-1.295.247-1.905h3.22A16 16 0 0 0 5.237 10c0 .648.057 1.276.133 1.905zm.781 1.905h2.781c.334 1.19.762 2.333 1.334 3.39a7.63 7.63 0 0 1-4.115-3.39m2.781-7.62h-2.78A7.55 7.55 0 0 1 7.047 2.8c-.572 1.057-1 2.2-1.334 3.39m6.038 5.715H7.295A12.6 12.6 0 0 1 7.143 10c0-.648.057-1.286.152-1.905h4.457c.086.62.153 1.257.153 1.905s-.067 1.276-.153 1.905m.239-9.105a7.6 7.6 0 0 1 4.123 3.39h-2.81a15 15 0 0 0-1.313-3.39M20 15.714v1.905h-7.619v-1.905z" fill="currentColor"/></svg>