<svg width="20" height="20" viewBox="0 0 20 20" fill="none" xmlns="http://www.w3.org/2000/svg"><path d="M14.119 9.737c0-.662-.059-1.305-.136-1.947h3.29a8 8 0 0 1 .254 1.947c0 .36-.03.71-.078 1.052a5.6 5.6 0 0 1 1.87.623c.097-.545.155-1.1.155-1.675C19.474 4.382 15.092 0 9.737 0 4.352 0 0 4.382 0 9.737s4.382 9.737 9.737 9.737c.575 0 1.13-.058 1.675-.156a5.74 5.74 0 0 1-.701-2.765c0-.282.029-.555.068-.828a14.5 14.5 0 0 1-1.042 1.763c-.808-1.169-1.46-2.464-1.86-3.856H11.5a5.8 5.8 0 0 1 2.522-2.337 14 14 0 0 0 .098-1.558m-4.382-7.76c.808 1.168 1.46 2.473 1.86 3.865h-3.72c.4-1.392 1.052-2.697 1.86-3.865m-7.536 9.708a8 8 0 0 1-.254-1.948c0-.672.098-1.324.254-1.947h3.29a16 16 0 0 0-.136 1.947c0 .662.059 1.305.137 1.947zM3 13.632h2.843c.341 1.217.78 2.385 1.363 3.466A7.8 7.8 0 0 1 3 13.632m2.843-7.79H3a7.72 7.72 0 0 1 4.206-3.466c-.584 1.08-1.022 2.25-1.363 3.466m6.174 5.843H7.459a13 13 0 0 1-.156-1.948c0-.662.058-1.314.156-1.947h4.557c.087.633.155 1.285.155 1.947s-.068 1.305-.155 1.947m.243-9.31a7.78 7.78 0 0 1 4.216 3.467h-2.872a15.2 15.2 0 0 0-1.344-3.466m5.667 14.178L20 18.617 18.617 20l-2.064-2.074L14.49 20l-1.373-1.383 2.064-2.064-2.064-2.064 1.373-1.373 2.064 2.064 2.064-2.064L20 14.489z" fill="currentColor"/></svg>