<svg width="20" height="20" viewBox="0 0 20 20" fill="none" xmlns="http://www.w3.org/2000/svg"><path d="M2 18h3v2H1.5c-.39 0-.74-.16-1.04-.46S0 18.89 0 18.5V15h2zm18-3v3.5c0 .39-.16.74-.46 1.04s-.65.46-1.04.46H15v-2h3v-3zM10.01 2.13c1.03 0 2.05.2 3.01.6a8 8 0 0 1 2.55 1.71 7.9 7.9 0 0 1 1.71 2.55c.4.95.6 1.98.6 3.01v.01c0 2.09-.83 4.09-2.31 5.57a7.87 7.87 0 0 1-8.58 1.71 8 8 0 0 1-2.55-1.71 7.87 7.87 0 0 1-2.31-5.57c0-4.34 3.53-7.88 7.88-7.88M8.5 13.15c.32 1.13.85 2.17 1.5 3.12h.01c.65-.95 1.18-1.99 1.5-3.12zm-3.95 0a6.32 6.32 0 0 0 3.4 2.8c-.47-.87-.82-1.82-1.1-2.8zm8.58 0c-.26.98-.62 1.93-1.09 2.8a6.3 6.3 0 0 0 3.41-2.8zM3.9 8.42c-.12.51-.2 1.03-.2 1.58s.07 1.08.2 1.58h2.66c-.06-.52-.11-1.04-.11-1.58s.05-1.06.11-1.58zm4.25 0c-.08.52-.13 1.04-.13 1.58s.05 1.06.13 1.58h3.69c.07-.52.13-1.04.13-1.58s-.06-1.07-.13-1.58zm5.29 0c.06.52.11 1.04.11 1.58s-.05 1.06-.11 1.58h2.66c.12-.51.2-1.03.2-1.58s-.07-1.08-.2-1.58zM7.95 4.05a6.2 6.2 0 0 0-3.4 2.8h2.3c.27-.98.63-1.93 1.1-2.8m2.04-.33c-.65.95-1.18 2-1.5 3.13h3.01c-.32-1.13-.85-2.19-1.5-3.13zm2.05.33c.48.87.84 1.82 1.09 2.8h2.32c-.76-1.3-1.96-2.3-3.41-2.8M5 2H2v3H0V1.5C0 1.11.16.76.46.46S1.11 0 1.5 0H5zm13.5-2c.39 0 .74.16 1.04.46s.46.65.46 1.04V5h-2V2h-3V0z" fill="currentColor"/></svg>