<svg width="20" height="20" viewBox="0 0 20 20" fill="none" xmlns="http://www.w3.org/2000/svg"><path d="M14.36 12c.08-.66.14-1.32.14-2s-.06-1.34-.14-2h3.38c.16.64.26 1.31.26 2s-.1 1.36-.26 2m-5.15 5.56c.6-1.11 1.06-2.31 1.38-3.56h2.95a8.03 8.03 0 0 1-4.33 3.56M12.34 12H7.66c-.1-.66-.16-1.32-.16-2s.06-1.35.16-2h4.68c.09.65.16 1.32.16 2s-.07 1.34-.16 2M10 17.96c-.83-1.2-1.5-2.53-1.91-3.96h3.82c-.41 1.43-1.08 2.76-1.91 3.96M6 6H3.08A7.92 7.92 0 0 1 7.4 2.44C6.8 3.55 6.35 4.75 6 6m-2.92 8H6c.35 1.25.8 2.45 1.4 3.56A8 8 0 0 1 3.08 14m-.82-2C2.1 11.36 2 10.69 2 10s.1-1.36.26-2h3.38c-.08.66-.14 1.32-.14 2s.06 1.34.14 2M10 2.03c.83 1.2 1.5 2.54 1.91 3.97H8.09C8.5 4.57 9.17 3.23 10 2.03M16.92 6h-2.95a15.7 15.7 0 0 0-1.38-3.56c1.84.63 3.37 1.9 4.33 3.56M10 0C4.47 0 0 4.5 0 10A10 10 0 1 0 10 0" fill="currentColor"/></svg>