<svg width="120" height="48" viewBox="0 0 120 48" fill="none" xmlns="http://www.w3.org/2000/svg"><path d="M63.36.563C65.24.311 69.714.498 71.785.47c2.88.147 5.955-.22 8.808.117 6.783.802 11.57 5.176 14.063 11.14-2.475.035-5.862-.245-8.26.201-.331.061-.844.534-1.105.774-1.307-1.425-3.009-2.733-4.95-3.123-2.78-.56-5.81-.186-8.647-.26-2.022.025-4.073-.048-6.09.022-15.278.537-15.615 28.598-.304 29.31 2.312.106 4.813.041 7.141.038 2.491-.004 5.19.094 7.664-.07 2.426-.288 3.625-.972 5.531-2.339.341.308.807.583 1.2.833 2.47.114 5.401.033 7.902.026-2.352 5.292-7.052 9.72-12.96 10.557-2.5.354-5.631.153-8.132.167-6.836.036-13.78.658-19.483-3.92-10.637-8.011-12.008-25.348-4.321-35.796 3.173-4.313 8.256-6.851 13.52-7.58z" fill="#4DA3FF"/><path d="M119.706 15.228c-.025-.53-.067-1.064-.296-1.549-1.457-.565-12.882-.402-15.113-.332-5.47.171-11.85-.25-17.27.042-.73.574-.982.912-1.037 1.867-.134 2.384.043 4.847.034 7.235-.014 3.611-.063 7.201-.042 10.81.012 1.222.325 1.89 1.678 1.92 3.799.092 7.611.045 11.412.04l19.737-.015c.429-.23.652-.416.797-.901.206-.69.189-17.16.1-19.117M95.331 32.503h-7.702l.01-3.028c1.588-.005 11.653.268 12.379-.459.316-.314.377-.924.445-1.352q-.026-.076-.056-.155l-.035-.085c-.224-.57-.413-.902-1.055-1.06-3.444-.84-11.422 1.706-11.57-4.045a4 4 0 0 1-.05-.485c-.222-5.153 4.483-4.822 8.166-4.727 2.195.057 4.451.06 6.648.042l-.012 2.807c-1.576 0-10.084-.294-10.972.375-.441.334-.487.849-.58 1.358.111.492.202 1.168.696 1.346 3.985 1.443 9.834-1.906 11.861 3.428 1.06 6.544-3.333 6.044-8.173 6.04m23.032-12.26c-1.003-.008-5.029-.196-5.628.223.027 1.575.146 4.742.007 6.264q.051 2.823.044 5.646l-3.497.017c.002-1.381-.065-3.954.038-5.244-.143-1.22-.064-5.546.007-6.825-.71-.21-4.248-.12-5.234-.11l.004-3.044 14.27.007zM.151.053 17.26.016c9.733-.012 24.345-.952 24.494 13.051.046 4.254-.25 6.99-3.32 10.258 3.725 2.904 4.472 4.905 4.637 9.531.575 16.123-13.197 15.054-24.463 15.03L.133 47.824c-.026-2.025-.502-8.1.52-9.395L2 38.311c4.95-.019 27.682 1.096 30.507-1.414 1.085-.965 1.493-2.477 1.505-3.891.013-1.276-.394-2.458-1.306-3.37-1.002-1.005-2.401-1.491-3.772-1.731-4.462-.78-14.672-.158-19.778-.14l.004-8.428c6.362-.065 13.17.372 19.498-.12 6.174-.752 6.296-9.67-.242-10.03-9.38-.515-18.866-.18-28.276-.032zm94.446.181c5.488.116 9.451-.89 14.009 2.631a13.54 13.54 0 0 1 5.029 8.763l-9.415.092.019-1.874-5.077.01c-1.087-3.844-2.247-6.375-4.566-9.622zm9.829 36.915h9.55L113.947 48h-9.51z" fill="#4DA3FF"/></svg>