<svg viewBox="0 0 24 24" fill="none" xmlns="http://www.w3.org/2000/svg"><path d="M19.027 11.311c-.056 0-.106.042-.127.097l-.337 1.156c-.148.499-.092.956.154 1.295.226.311.605.491 1.063.512l1.842.11a.16.16 0 0 1 .134.07.2.2 0 0 1 .021.152.24.24 0 0 1-.204.153l-1.92.11c-1.041.049-2.16.873-2.553 1.884l-.141.353c-.028.069.021.138.098.138h6.598a.17.17 0 0 0 .17-.125 4.7 4.7 0 0 0 .175-1.26c0-2.561-2.124-4.652-4.734-4.652-.077 0-.162 0-.24.007" fill="#fbad41"/><path d="M16.509 16.767c.148-.499.091-.956-.155-1.295-.225-.311-.605-.492-1.062-.512l-8.659-.111a.16.16 0 0 1-.134-.07.2.2 0 0 1-.02-.152.24.24 0 0 1 .203-.152l8.737-.11c1.034-.05 2.159-.873 2.553-1.884l.5-1.28a.27.27 0 0 0 .013-.167c-.562-2.506-2.834-4.375-5.55-4.375-2.504 0-4.628 1.592-5.388 3.8a2.6 2.6 0 0 0-1.793-.49c-1.203.117-2.167 1.065-2.286 2.25a2.6 2.6 0 0 0 .063.878C1.57 13.153 0 14.731 0 16.677q.002.26.035.519a.17.17 0 0 0 .169.145h15.981a.22.22 0 0 0 .204-.152z" fill="#f6821f"/></svg>