<svg width="24" height="24" viewBox="0 0 24 24" fill="none" xmlns="http://www.w3.org/2000/svg"><mask id="a" style="mask-type:luminance" maskUnits="userSpaceOnUse" x="1" y="2" width="22" height="20"><path d="M1 2.5V20c0 .825.675 1.5 1.5 1.5h19c.825 0 1.5-.675 1.5-1.5V2.5zm13.5 4h-5a1 1 0 1 1 0-2h5a1 1 0 1 1 0 2" fill="#fff"/></mask><g mask="url(#a)"><path d="M1 2.5h22v19H1z" fill="#eee"/></g><mask id="b" style="mask-type:luminance" maskUnits="userSpaceOnUse" x="1" y="2" width="22" height="20"><path d="M1 2.5V20c0 .825.675 1.5 1.5 1.5h19c.825 0 1.5-.675 1.5-1.5V2.5zm13.5 4h-5a1 1 0 1 1 0-2h5a1 1 0 1 1 0 2" fill="#fff"/></mask><g mask="url(#b)"><path d="M14.5 4.5h-5a1 1 0 1 0 0 2h5a1 1 0 1 0 0-2" fill="#fff"/></g><mask id="c" style="mask-type:luminance" maskUnits="userSpaceOnUse" x="1" y="2" width="22" height="20"><path d="M1 2.5V20c0 .825.675 1.5 1.5 1.5h19c.825 0 1.5-.675 1.5-1.5V2.5zm13.5 4h-5a1 1 0 1 1 0-2h5a1 1 0 1 1 0 2" fill="#fff"/></mask><g mask="url(#c)"><mask id="d" style="mask-type:luminance" maskUnits="userSpaceOnUse" x="2" y="10" width="20" height="20"><path d="M12 29.5a9.5 9.5 0 1 0 0-19 9.5 9.5 0 0 0 0 19" fill="#fff"/></mask><g mask="url(#d)"><path d="M4.009 10.5v11.659H8.26L12 15.68h9.5V10.5zm0 0v11.659H8.26L12 15.68h9.5V10.5z" fill="#db4437"/></g><mask id="e" style="mask-type:luminance" maskUnits="userSpaceOnUse" x="2" y="10" width="20" height="20"><path d="M12 29.5a9.5 9.5 0 1 0 0-19 9.5 9.5 0 0 0 0 19" fill="#fff"/></mask><g mask="url(#e)"><path d="M2.5 29.5h9.043l4.197-4.198V22.16l-7.48-.001L2.5 12.28zm0 0h9.043l4.197-4.198V22.16l-7.48-.001L2.5 12.28z" fill="#0f9d58"/></g><mask id="f" style="mask-type:luminance" maskUnits="userSpaceOnUse" x="2" y="10" width="20" height="20"><path d="M12 29.5a9.5 9.5 0 1 0 0-19 9.5 9.5 0 0 0 0 19" fill="#fff"/></mask><g mask="url(#f)"><path d="m12 15.681 3.74 6.478-4.196 7.34H21.5V15.682zm0 0 3.74 6.478-4.196 7.34H21.5V15.682z" fill="#ffcd40"/></g><mask id="g" style="mask-type:luminance" maskUnits="userSpaceOnUse" x="2" y="10" width="20" height="20"><path d="M12 29.5a9.5 9.5 0 1 0 0-19 9.5 9.5 0 0 0 0 19" fill="#fff"/></mask><g mask="url(#g)"><path d="M12 24.319a4.319 4.319 0 1 0 0-8.638 4.319 4.319 0 0 0 0 8.638" fill="#f1f1f1"/><path d="M12 23.455a3.455 3.455 0 1 0 0-6.91 3.455 3.455 0 0 0 0 6.91" fill="#4285f4"/></g></g><mask id="h" style="mask-type:luminance" maskUnits="userSpaceOnUse" x="1" y="2" width="22" height="20"><path d="M1 2.5V20c0 .825.675 1.5 1.5 1.5h19c.825 0 1.5-.675 1.5-1.5V2.5zm13.5 4h-5a1 1 0 1 1 0-2h5a1 1 0 1 1 0 2" fill="#fff"/></mask><g mask="url(#h)"><path d="M1 2.5h22V12H1z" fill="#212121" fill-opacity=".05"/></g><path d="M1 11.875h22V12H1z" fill="#212121" fill-opacity=".02"/><path d="M1 12h22v.125H1z" fill="#fff" fill-opacity=".05"/><path d="M14.5 6.5h-5a1 1 0 0 1-.996-.937l-.004.062a1 1 0 0 0 1 1h5a1 1 0 0 0 .996-1.062 1 1 0 0 1-.996.937M1 2.5v.125h22V2.5z" fill="#212121" fill-opacity=".02"/><path d="M9.5 4.5h5c.531 0 .965.415.996.938q.004-.032.004-.063a1 1 0 0 0-1-1h-5a1 1 0 0 0-.996 1.063A1 1 0 0 1 9.5 4.5m12 16.875h-19c-.825 0-1.5-.675-1.5-1.5V20c0 .825.675 1.5 1.5 1.5h19c.825 0 1.5-.675 1.5-1.5v-.125c0 .825-.675 1.5-1.5 1.5" fill="#231f20" fill-opacity=".1"/><path d="M1 2.5V20c0 .825.675 1.5 1.5 1.5h19c.825 0 1.5-.675 1.5-1.5V2.5zm13.5 4h-5a1 1 0 1 1 0-2h5a1 1 0 1 1 0 2" fill="url(#i)"/><defs><radialGradient id="i" cx="0" cy="0" r="1" gradientUnits="userSpaceOnUse" gradientTransform="translate(.938 2.418)scale(28.4495)"><stop stop-color="#fff" stop-opacity=".1"/><stop offset="1" stop-color="#fff" stop-opacity="0"/></radialGradient></defs></svg>