<svg viewBox="0 0 24 24" fill="none" xmlns="http://www.w3.org/2000/svg"><path d="M12 24c6.627 0 12-5.373 12-12S18.627 0 12 0 0 5.373 0 12s5.373 12 12 12" fill="#031b4e"/><path d="M15.656 9.738c0 .39-1.638.708-3.656.708s-3.656-.319-3.656-.708v1.992c0 .401 1.638.72 3.656.72s3.656-.319 3.656-.72zM12 13.041c2.018 0 3.656-.32 3.656-.708v2.004c0 .389-1.638.707-3.656.707s-3.656-.318-3.656-.707v-2.004c0 .389 1.638.707 3.656.707m3.656 1.886c0 .39-1.638.708-3.656.708s-3.656-.319-3.656-.708v2.004c0 .39 1.638.708 3.656.708s3.656-.319 3.656-.708zm0-6.958L12 5.61 8.344 7.969v1.298c0 .33 1.638.59 3.656.59s3.656-.26 3.656-.59z" fill="#fff"/></svg>