<svg viewBox="0 0 24 24" fill="none" xmlns="http://www.w3.org/2000/svg"><path d="M20.944 5.902a2.06 2.06 0 0 0-1.8 1.06l-.043.086-1.604 3.183-2.042 4.023 1.338 2.636.073.144c.206.365.517.66.893.846a2.1 2.1 0 0 0 .892-.846l.073-.144 4.008-7.907.097-.191a2.058 2.058 0 0 0-1.882-2.88zM8.558 9.732 7.223 7.113 7.15 6.97a2.07 2.07 0 0 0-.89-.843 2.07 2.07 0 0 0-.89.84l-.076.147-4.013 7.9-.097.188a2.057 2.057 0 0 0 3.68 1.832l.045-.084 1.615-3.182 2.04-4.021z" fill="#ff5100"/><path d="M20.939 5.902a2.06 2.06 0 0 0-1.798 1.06l-.045.086-1.615 3.183-2.044 4.023 1.34 2.636.073.144c.206.366.517.66.893.846.376-.186.687-.48.892-.846l.076-.144 4.02-7.907.095-.191a2.057 2.057 0 0 0-1.882-2.88z" fill="url(#a)"/><path d="M3.064 18.094a2.06 2.06 0 0 0 1.798-1.047l.045-.086 1.617-3.183 2.042-4.023-1.338-2.65-.073-.143a2.1 2.1 0 0 0-.895-.846 2.1 2.1 0 0 0-.893.846l-.073.144-4.026 7.907-.097.191a2.057 2.057 0 0 0 1.882 2.88z" fill="url(#b)"/><path d="M8.558 9.731 7.223 7.114 7.15 6.97a2.1 2.1 0 0 0-.893-.846q.188-.091.39-.146.258-.066.524-.066h2.795a2.07 2.07 0 0 1 1.796 1.047l.073.144 3.615 7.162 1.332 2.617.073.144c.208.37.523.667.904.854-.284.137-.594.21-.909.212h-2.81a2.07 2.07 0 0 1-1.793-1.047l-.076-.144z" fill="#ff8c44"/><defs><linearGradient id="a" x1="283.104" y1="1143.22" x2="750.826" y2="140.259" gradientUnits="userSpaceOnUse"><stop stop-color="#d4202c"/><stop offset=".1" stop-color="#dc3d29" stop-opacity=".79"/><stop offset=".2" stop-color="#e45926" stop-opacity=".58"/><stop offset=".32" stop-color="#ea7123" stop-opacity=".4"/><stop offset=".43" stop-color="#f08521" stop-opacity=".25"/><stop offset=".55" stop-color="#f4941f" stop-opacity=".14"/><stop offset=".68" stop-color="#f79f1e" stop-opacity=".06"/><stop offset=".82" stop-color="#f8a51d" stop-opacity=".02"/><stop offset="1" stop-color="#f9a71d" stop-opacity="0"/></linearGradient><linearGradient id="b" x1="489.91" y1="66.58" x2="22.137" y2="1069.65" gradientUnits="userSpaceOnUse"><stop stop-color="#d4202c"/><stop offset=".1" stop-color="#dc3d29" stop-opacity=".79"/><stop offset=".2" stop-color="#e45926" stop-opacity=".58"/><stop offset=".32" stop-color="#ea7123" stop-opacity=".4"/><stop offset=".43" stop-color="#f08521" stop-opacity=".25"/><stop offset=".55" stop-color="#f4941f" stop-opacity=".14"/><stop offset=".68" stop-color="#f79f1e" stop-opacity=".06"/><stop offset=".82" stop-color="#f8a51d" stop-opacity=".02"/><stop offset="1" stop-color="#f9a71d" stop-opacity="0"/></linearGradient></defs></svg>