<svg width="20" height="20" viewBox="0 0 20 20" fill="none" xmlns="http://www.w3.org/2000/svg"><path d="M10 20c5.523 0 10-4.477 10-10S15.523 0 10 0 0 4.477 0 10s4.477 10 10 10" fill="url(#a)"/><path d="M14.99 5.863c.09-.575-.458-1.029-.97-.804L3.833 9.532c-.367.161-.34.717.04.838l2.102.67c.4.127.835.06 1.185-.181l4.737-3.273c.143-.099.299.104.177.23l-3.41 3.516a.765.765 0 0 0 .133 1.168l3.818 2.395c.428.268.979-.002 1.059-.52z" fill="#fff"/><defs><linearGradient id="a" x1="10" y1="0" x2="10" y2="20" gradientUnits="userSpaceOnUse"><stop stop-color="#37bbfe"/><stop offset="1" stop-color="#007dbb"/></linearGradient></defs></svg>