<svg width="24" height="24" viewBox="0 0 24 24" fill="none" xmlns="http://www.w3.org/2000/svg"><path d="m20.165 3.507.33.978c.047.137.125.39.182.516q-.42.138-.84.283c-.125.043-.383.124-.489.177-.194-.644-.449-1.285-.653-1.927-.035-.11-.079-.22-.111-.331-.58.177-1.246.42-1.825.618l-3.5 1.193c-.254.086-2.051.675-2.134.739.008.03 1.057.65 1.175.721l2.823 1.703c.978.588 1.978 1.213 2.96 1.785l.096.055c-.251.533-.511 1.213-.743 1.768l-1.4 3.356-1.007 2.412-.31.745c-.065.153-.146.335-.196.49.968-.357 2.043-.701 3.025-1.036l5.369-1.829-.347-1.017c-.047-.137-.134-.417-.192-.541.412-.11.916-.312 1.334-.445.021.063.055.178.088.267q.198-1.065.2-2.187c0-3.55-1.542-6.74-3.993-8.937.057.128.122.336.158.444" fill="#1386ba"/><path d="m21.849 18.54-.61.209-2.078.707-7.449 2.537c.124-.244.272-.625.38-.886l.65-1.547 2.214-5.27.742-1.765c.133-.318.285-.713.434-1.017-.146-.063-.573-.319-.724-.405l-1.477-.836-5.234-2.958-1.554-.879c-.27-.153-.628-.37-.9-.495.306-.12.681-.239.996-.346l1.72-.585 6.184-2.107 2.026-.69c.37-.127.798-.262 1.162-.402A11.95 11.95 0 0 0 12 0C5.373 0 0 5.373 0 12s5.373 12 12 12c4.253 0 7.99-2.213 10.12-5.551-.076.02-.209.07-.271.09z" fill="#0d92ce"/></svg>