<svg viewBox="0 0 116 116" fill="none" xmlns="http://www.w3.org/2000/svg">
  <mask id="a" style="mask-type:luminance" maskUnits="userSpaceOnUse" x="0" y="0" width="116" height="116">
    <path d="M57.56 115.12c31.79 0 57.56-25.77 57.56-57.56S89.35 0 57.56 0 0 25.77 0 57.56s25.77 57.56 57.56 57.56" fill="#fff" />
  </mask>
  <g mask="url(#a)">
    <path d="M.06 0v115h115V0zm29.78 44.16c.99-1.77 3.09-2.41 4.87-3.01-3.73-2.26-3.53-6.49.52-8.2.04-.01.09-.01.13-.01.71-.03 1.6.33 2.26.6 2.76 1.14 5.22 2.85 7.44 4.83 1.25 1.12 2.37 2.67 2.48 4.4.03.61-.14 1.1-.55 1.54-.47.51-.98-.01-1.49-.17-2.84-1.37-5.31-1.83-8.45-1.79-1.9.16-5.1.93-5.88 3.02-.16.42-.05 1.18-.48 1.38-1.13-.21-1.37-1.67-.85-2.59m19 22.93c.37.3.27.76.04 1.13-.97 1.57-2.12 3.5-4.07 3.77-1.51.01-5.31.25-6.5-.21-1.32-.52-3.43-4.11-3.91-5.45 1.33-.49 4.2-1.03 5.62-1.19.26-.04.78-.09 1.02-.02 1.93.53 3.27 2.11 5.22 2.9 1-.28 1.88-1.13 2.58-.93m-19.8-19.05c1.41-.24 2.88.06 4.31.14 4.58.22 8.61.09 12.91-1.59.93 0 .69 2.97.6 3.57-.44 3.04-1.49 8.19-4.38 9.9-5.68 3.36-8.21 6.27-12.91.31a9.7 9.7 0 0 1-1.84-3.99c-.34-1.59-.21-3.04-.35-4.63-.02-.26-.12-.47-.3-.66-.37-.16-.93.33-1.23-.02 0-1.25 2.08-2.82 3.19-3.03m15.43 48.78c-.09-.02-.33-.08-.4-.13-.87-.68-1.96-1.95-2.68-2.81-5.35-6.38-9.98-13.53-13.55-21.06-.95-1.99-1.82-4.06-2.42-6.17-.15-.54-.22-.79.03-1.22.9.07 1.32 2.01 1.66 2.8.71 1.61 1.46 3.21 2.26 4.78 1.87 3.69 4 7.24 6.38 10.63 1.03 1.46 2.27 3.04 3.41 4.48 2.01 2.57 4.18 5 5.33 8.13.11.3.09.35-.02.57m2.88-3.66c-.22-1.05-.29-2.65-.46-3.76-.23-1.65-1.7-4.13-.9-5.61 1.02-.14 3.61.17 4.46.73 1.17.69 2.09 2.88 1.52 4.18-1.08 2.41-1.42 4.01-1 6.71.41 2.71.95 5.38 1.56 8.09l.24 1.05c-3.79-1.22-4.71-8.05-5.42-11.39m43.97-42.49c-.41-.71-.95-1.43-1.48-2.04-1.82-2.1-3.29-2.54-5.95-2.71 2.82-1.11 2.34-2.11 5.76-1.63l.1-.1a.77.77 0 0 0-.31-.42c-2.24-1.23-4.22 1.45-6.46 1.73-2.01.38-3.1-1.02-4.6-2.14-2.38-1.77-5.61-1.96-8.47-1.45-2.21.39-5.39 1.6-6.7 3.5.15.13.29.25.45.36.46.35.99.59 1.53.76 3.67 1.18 7.54 1.55 11.35 1.11 4.35-.52 8.88-1.8 12.72 1.3.89.71 1.89 2.07 1.91 3.26.03 1.59-.16 3.31-.33 4.9-.44 4.41-1.14 8.78-2.09 13.11-1.24 5.9-2.61 10.75-6.79 15.25-1.43 1.6-2.94 2.99-4.55 4.43-4.81 4.32-9.82 8.85-15.3 12.3-1.8 1.13-4.16 1.84-6.24 1.99.73-2.91 1.38-5.79 1.86-8.75.2-1.23.47-2.58.37-3.83-.12-1.5-1.07-2.9-1.08-4.39-.01-.58.2-1.19.5-1.69 1.5-2.54 4.94-2.28 5.5-2.96.07-.09.04-.11.03-.22-.29-.2-3.15-.03-3.71-.03-4.06 0-9.35-.04-13.29-.91-2.51-.56-4.73-1.57-6.91-2.91-1.72-1.18-3.2-2.4-4.5-4.03 2.97 1.7 4.79 1.91 8.19 2.46 2.22.36 5.28.5 7.49.62 1.96.11 13.31.51 14.48-.37.09-.23.09-.11 0-.36-.2-.14-.33-.17-.57-.17-1.55-.02-3.1-.02-4.65-.04-3.19-.03-6.37-.12-9.55-.28-1.41-.07-3.87-.18-5.2-.46 1-.21 3.67-.15 4.85-.18.97-.56 3.33-4.03 4.56-5.16 1.45 1.27 3.55 4.4 4.91 5.37 1.04.11 2.23.1 3.28.11l4.71.06c1.01.01 5.66.17 6.28-.03 2.46-.78 6.06-5.65 7.58-7.78.54-.76 1.21-1.92 1.71-2.7l.33-.09c2.23-.59 3.96-1.65 5.34-3.64.13-.19.11-.2.07-.35-.48-.2-.95.64-1.37 1-1.97 1.73-4.56 2.34-7.09 2.35-1.38.01-2.75-.19-4.06-.58-1.61-.46-6.88-2.91-7.84-2.71l-.06.11c.04.1.08.18.16.26 2.8 2.62 6.73 3.89 10.52 4.02-1.31 1.65-2.7 3.38-4.21 4.85-.47.45-1 .91-1.63 1.13-1.31.45-4.27.17-5.76.15-.95-.01-1.9.02-2.85 0-.48-.01-1.03-.04-1.45-.29-.87-.5-3.5-4.07-4.46-5.08-1.49.56-4.4.63-5.68-.48-2.56-2.2-1.53-5.59-1.18-8.48.44-3.44.75-6.89.94-10.35.06-1.17.13-2.57.05-3.72-.25-3.34-3.18-5.1-5.48-7.02 1.07-1.04 3.44-1.97 1.57-3.81-1.79-1.76-4.12-2.92-6.4-3.91-.84-.37-3.06-.97-3.67-1.47l.03-.13c.89-.31 3.34.81 3.85.48l-.06-.14c-.58-.47-1.76-.84-2.49-1.04-1.87-.52-3.76-.91-5.7-.96-1.21-.03-2.4.03-3.61 0 1.16-1.8 4.24-2.67 6.2-3.33-1.03-.75-2.23-1.45-2.24-2.89-.01-1.76.46-3.5 1.7-4.8.85-.89 1.59-1.18 2.79-1.31 2.2-.24 4.39-.32 6.6-.41 1.25-.1 3.75-.06 5.06-.04 11.6.22 24.14 1.9 34.89 6.41 1.35.57 2.9 1.3 4.13 2.02.3.99.69 4.35.82 5.44.76 6.03 1.13 12.09 1.11 18.16-.02 2.03-.22 3.83-.26 5.78z" fill="currentColor" />
    <path d="M44.47 96.82c-.09-.02-.33-.08-.4-.13-.87-.68-1.96-1.95-2.68-2.81-5.35-6.38-9.98-13.53-13.55-21.06-.95-1.99-1.82-4.06-2.42-6.17-.15-.54-.22-.79.03-1.22.9.07 1.32 2.01 1.66 2.8.71 1.61 1.46 3.21 2.26 4.78 1.87 3.69 4 7.24 6.38 10.63 1.03 1.46 2.27 3.04 3.41 4.48 2.01 2.57 4.18 5 5.33 8.13.11.3.09.35-.02.57m8.3 7.73c-3.79-1.22-4.71-8.05-5.42-11.39-.22-1.05-.29-2.65-.46-3.76-.23-1.65-1.7-4.13-.9-5.61 1.02-.14 3.61.17 4.46.73 1.17.69 2.09 2.88 1.52 4.18-1.08 2.41-1.42 4.01-1 6.71.41 2.71.95 5.38 1.56 8.09zm-3.89-36.33c-.97 1.57-2.12 3.5-4.07 3.77-1.51.01-5.31.25-6.5-.21-1.32-.52-3.43-4.11-3.91-5.45 1.33-.49 4.2-1.03 5.62-1.19.26-.04.78-.09 1.02-.02 1.93.53 3.27 2.11 5.22 2.9 1-.28 1.88-1.13 2.58-.93.37.3.27.76.04 1.13m-2.02-18.06c-.44 3.04-1.49 8.19-4.38 9.9-5.68 3.36-8.21 6.27-12.91.31a9.7 9.7 0 0 1-1.84-3.99c-.34-1.59-.21-3.04-.35-4.63-.02-.26-.12-.47-.3-.66-.37-.16-.93.33-1.23-.02 0-1.25 2.08-2.82 3.19-3.03 1.41-.24 2.88.06 4.31.14 4.58.22 8.61.09 12.91-1.59.93 0 .69 2.97.6 3.57m.68-7.39c.03.61-.14 1.1-.55 1.54-.47.51-.98-.01-1.49-.17-2.84-1.37-5.31-1.83-8.45-1.79-1.9.16-5.1.93-5.88 3.02-.16.42-.05 1.18-.48 1.38-1.13-.21-1.37-1.67-.85-2.59.99-1.77 3.09-2.41 4.87-3.01-3.73-2.26-3.53-6.49.52-8.2.04-.01.09-.01.13-.01.71-.03 1.6.33 2.26.6 2.76 1.14 5.22 2.85 7.44 4.83 1.25 1.12 2.37 2.67 2.48 4.4" fill="#fff" />
    <path d="M83.89 45.92c2.66.17 4.13.61 5.95 2.71.53.61 1.07 1.33 1.48 2.04.04-1.95.24-3.75.26-5.78.02-6.07-.35-12.13-1.11-18.16-.13-1.09-.52-4.45-.82-5.44-1.23-.72-2.78-1.45-4.13-2.02-10.75-4.51-23.29-6.19-34.89-6.41-1.31-.02-3.81-.06-5.06.04-2.21.09-4.4.17-6.6.41-1.2.13-1.94.42-2.79 1.31-1.24 1.3-1.71 3.04-1.7 4.8.01 1.44 1.21 2.14 2.24 2.89-1.96.66-5.04 1.53-6.2 3.33 1.21.04 2.4-.02 3.61 0 1.94.05 3.83.44 5.7.96.73.2 1.91.57 2.49 1.04l.06.14c-.51.33-2.96-.79-3.85-.48l-.03.13c.61.5 2.83 1.1 3.67 1.47 2.28.99 4.61 2.15 6.4 3.91 1.87 1.84-.5 2.77-1.57 3.81 2.3 1.92 5.23 3.68 5.48 7.02.08 1.15.01 2.55-.05 3.72-.19 3.46-.5 6.91-.94 10.35-.35 2.89-1.38 6.28 1.18 8.48 1.28 1.11 4.19 1.04 5.68.48.96 1.01 3.59 4.58 4.46 5.08.42.25.97.28 1.45.29.95.02 1.9-.01 2.85 0 1.49.02 4.45.3 5.76-.15.63-.22 1.16-.68 1.63-1.13 1.51-1.47 2.9-3.2 4.21-4.85-3.79-.13-7.72-1.4-10.52-4.02a.7.7 0 0 1-.16-.26l.06-.11c.96-.2 6.23 2.25 7.84 2.71 1.31.39 2.68.59 4.06.58 2.53-.01 5.12-.62 7.09-2.35.42-.36.89-1.2 1.37-1 .04.15.06.16-.07.35-1.38 1.99-3.11 3.05-5.34 3.64l-.33.09c-.5.78-1.17 1.94-1.71 2.7-1.52 2.13-5.12 7-7.58 7.78-.62.2-5.27.04-6.28.03l-4.71-.06c-1.05-.01-2.24 0-3.28-.11-1.36-.97-3.46-4.1-4.91-5.37-1.23 1.13-3.59 4.6-4.56 5.16-1.18.03-3.85-.03-4.85.18 1.33.28 3.79.39 5.2.46 3.18.16 6.36.25 9.55.28 1.55.02 3.1.02 4.65.04.24 0 .37.03.57.17.09.25.09.13 0 .36-1.17.88-12.52.48-14.48.37-2.21-.12-5.27-.26-7.49-.62-3.4-.55-5.22-.76-8.19-2.46 1.3 1.63 2.78 2.85 4.5 4.03 2.18 1.34 4.4 2.35 6.91 2.91 3.94.87 9.23.91 13.29.91.56 0 3.42-.17 3.71.03.01.11.04.13-.03.22-.56.68-4 .42-5.5 2.96-.3.5-.51 1.11-.5 1.69.01 1.49.96 2.89 1.08 4.39.1 1.25-.17 2.6-.37 3.83-.48 2.96-1.13 5.84-1.86 8.75 2.08-.15 4.44-.86 6.24-1.99 5.48-3.45 10.49-7.98 15.3-12.3 1.61-1.44 3.12-2.83 4.55-4.43 4.18-4.5 5.55-9.35 6.79-15.25.95-4.33 1.65-8.7 2.09-13.11.17-1.59.36-3.31.33-4.9-.02-1.19-1.02-2.55-1.91-3.26-3.84-3.1-8.37-1.82-12.72-1.3-3.81.44-7.68.07-11.35-1.11-.54-.17-1.07-.41-1.53-.76-.16-.11-.3-.23-.45-.36 1.31-1.9 4.49-3.11 6.7-3.5 2.86-.51 6.09-.32 8.47 1.45 1.5 1.12 2.59 2.52 4.6 2.14 2.24-.28 4.22-2.96 6.46-1.73.14.08.27.27.31.42l-.1.1c-3.42-.48-2.94.52-5.76 1.63zM68.7 28.5c2.07-.92 4.33-1.55 6.59-1.74 3.88-.4 8.42 1.09 11.19 3.87-.91-.25-1.79-.82-2.69-1.19-3-1.27-5.2-1.57-8.4-1.25-1.91.21-3.8.59-5.64 1.15-.65.19-4.57 1.67-4.76 1.67-.1-.01-.11-.08-.17-.15.15-.73 3.16-2.04 3.88-2.36m19.52 8.89c-.37-.03-1.04-.77-1.32-1.05-1.6-1.62-3.24-2.67-5.36-3.46-3.04-1.11-5.04-.32-7.77.97-3.48 1.46-6.8 4.25-10.4 5.3-1.19.35-3.36-2.07-1.75-3.71 3.51-3.55 8.91-5.52 13.8-6.02 5.22-.55 9.56 2.17 12.16 6.52.24.4.62.9.71 1.36z" fill="#fff" />
    <path d="m88.29 37.3-.07.09c-.37-.03-1.04-.77-1.32-1.05-1.6-1.62-3.24-2.67-5.36-3.46-3.04-1.11-5.04-.32-7.77.97-3.48 1.46-6.8 4.25-10.4 5.3-1.19.35-3.36-2.07-1.75-3.71 3.51-3.55 8.91-5.52 13.8-6.02 5.22-.55 9.56 2.17 12.16 6.52.24.4.62.9.71 1.36" fill="currentColor" />
    <path d="M86.48 30.63c-.91-.25-1.79-.82-2.69-1.19-3-1.27-5.2-1.57-8.4-1.25-1.91.21-3.8.59-5.64 1.15-.65.19-4.57 1.67-4.76 1.67-.1-.01-.11-.08-.17-.15.15-.73 3.16-2.04 3.88-2.36 2.07-.92 4.33-1.55 6.59-1.74 3.88-.4 8.42 1.09 11.19 3.87" fill="currentColor" />
  </g>
</svg>
