<svg viewBox="0 0 759 705" fill="none" xmlns="http://www.w3.org/2000/svg">
  <path d="M388.12 514.76c-.4 29.94-2.17 59.75-12.8 88.32-19.88 53.39-58.47 84.74-113.63 95.88-14.87 3.01-30.34 4.12-45.55 4.27-70.63.68-141.26.71-211.9.97-1.13.01-4.24 0-4.24 0V545h6.25c64.83.3 129.66.49 194.48.08 10.32-.07 20.95-1.78 30.87-4.67 20.84-6.07 34.58-23.53 35.6-45.13 1.03-21.77 1.55-43.62.94-65.39-.84-30.08-22.45-51.55-52.53-52.63-24.95-.89-49.94-.93-74.91-1.01-44.83-.15-89.66-.04-134.49-.25H0V250h5.71c61.43 0 122.86.17 184.29-.2 8.97-.06 18.34-1.54 26.79-4.49 17.73-6.19 28.59-23.66 28.77-43.78.1-11.16.04-22.31.01-33.47-.07-25.61-17.36-43.04-42.82-43.05-65.26-.03-130.52-.01-195.78-.02H1V0h5.01C96 .3 185.99.19 275.98.39c18.64.04 37.45.85 54.3 10.24 19.87 11.06 32.58 27.88 33.79 50.86 1.41 26.76 1.12 53.61 1.16 80.42.03 18.82-.13 37.66-1.07 56.45-1.3 25.88-7.89 50.23-24.77 70.68-13.79 16.71-30.9 28.56-52.36 33.44-.28.06-.49.41-1.22 1.05 2.6.53 4.88.9 7.1 1.46 46.56 11.77 76.94 40.03 87.12 87.6 3.73 17.46 5.93 35.41 7 53.24 1.37 22.92 1.39 45.95 1.09 68.93m245.83 1.487c-.07 29.602-4.08 58.708-17.42 85.61-25.12 50.63-65.79 81.95-119.92 96.286-24.74 6.541-49.98 6.561-75.61 5.864V584.751c7.75-.556 15.42-.768 23.02-1.698 32.27-3.963 53.13-22.656 65.34-51.975 8.1-19.451 11.55-40.105 11.98-60.952 1.12-53.703 1.53-107.416 1.85-161.14.15-24.739-.12-49.498-1.02-74.216-.86-23.354-3.73-46.455-12.74-68.393-12.59-30.622-36.65-47.192-69.68-47.536-12.51-.132-25.01-.02-37.75-.02V.536c.53-.202.98-.536 1.42-.536 22.65.313 45.4-.667 67.92 1.264C511.53 4.72 547.01 20.36 576.79 48c29.09 26.994 47.3 60.214 54.19 99.38 1.93 11.04 3.04 22.383 3.06 33.595.17 114.21.18 228.431-.09 342.641zM759 .67v703.15c-1.58.11-3.01.28-4.44.29-22.5.04-44.99.09-67.48.03-2.8 0-5.64-.36-8.36-.99-4.99-1.16-8.25-4.37-9.03-9.48-.5-3.27-.47-6.64-.47-9.96-.03-221.62 0-443.24-.19-664.86C669.02 6 674.44.8 687.11.73 705.44.62 723.77.68 742.1.67c5.48-.01 10.95 0 16.9 0" fill="#1f63c6"/>
</svg>
