<svg xmlns="http://www.w3.org/2000/svg" style="display:none">
<symbol id="i-brand-301" viewBox="0 0 26 26"><path d="M13.295 18.57c-.013 1.026-.074 2.047-.438 3.026-.681 1.828-2.003 2.903-3.893 3.284a8.3 8.3 0 0 1-1.56.146c-2.42.024-4.839.025-7.259.034H0v-5.454h.214c2.22.01 4.442.017 6.662.003a4 4 0 0 0 1.058-.16 1.66 1.66 0 0 0 1.22-1.546c.034-.746.052-1.494.031-2.24-.028-1.03-.769-1.766-1.8-1.803-.854-.03-1.71-.032-2.565-.035-1.536-.005-3.072 0-4.607-.008H0V9.5h.196c2.104 0 4.208.005 6.313-.007.307-.002.628-.053.917-.154.608-.212.98-.81.986-1.5q.003-.573 0-1.146c-.002-.878-.595-1.475-1.467-1.475H.034V.936h.172C3.289.947 6.37.943 9.454.95c.638.001 1.283.03 1.86.35.68.38 1.116.956 1.157 1.743.049.917.039 1.837.04 2.755.001.645-.004 1.29-.036 1.934-.045.886-.27 1.72-.849 2.42-.472.573-1.058.98-1.794 1.146-.01.002-.016.014-.041.036.089.018.167.031.243.05 1.595.404 2.635 1.372 2.984 3.001.128.598.203 1.213.24 1.824.047.785.048 1.574.037 2.361m8.421.051c-.002 1.014-.14 2.011-.596 2.933-.86 1.734-2.254 2.807-4.108 3.298-.848.224-1.712.225-2.59.2v-4.084c.265-.02.528-.026.788-.058 1.106-.136 1.82-.776 2.238-1.78.278-.667.396-1.375.41-2.089.04-1.84.053-3.68.064-5.52a60 60 0 0 0-.035-2.542c-.03-.8-.128-1.591-.436-2.343-.431-1.049-1.256-1.616-2.387-1.628-.429-.005-.857-.001-1.293-.001V.955c.018-.007.033-.018.048-.018.776.01 1.556-.023 2.327.043a5.94 5.94 0 0 1 3.612 1.601 5.94 5.94 0 0 1 1.857 3.404c.066.379.104.767.104 1.151q.01 5.869-.003 11.738zM26 .96v24.087q-.08.008-.152.01-1.155.003-2.312 0-.145 0-.286-.033a.38.38 0 0 1-.31-.325c-.017-.112-.016-.227-.016-.341q.002-11.388-.006-22.775c0-.44.185-.619.62-.621q.94-.004 1.883-.002z" fill="#4da3ff"/></symbol>
<symbol id="i-brand-cloudflare" viewBox="0 0 24 24"><path d="M19.027 11.311c-.056 0-.106.042-.127.097l-.337 1.156c-.148.499-.092.956.154 1.295.226.311.605.491 1.063.512l1.842.11a.16.16 0 0 1 .134.07.2.2 0 0 1 .021.152.24.24 0 0 1-.204.153l-1.92.11c-1.041.049-2.16.873-2.553 1.884l-.141.353c-.028.069.021.138.098.138h6.598a.17.17 0 0 0 .17-.125 4.7 4.7 0 0 0 .175-1.26c0-2.561-2.124-4.652-4.734-4.652-.077 0-.162 0-.24.007" fill="#fbad41"/><path d="M16.509 16.767c.148-.499.091-.956-.155-1.295-.225-.311-.605-.492-1.062-.512l-8.659-.111a.16.16 0 0 1-.134-.07.2.2 0 0 1-.02-.152.24.24 0 0 1 .203-.152l8.737-.11c1.034-.05 2.159-.873 2.553-1.884l.5-1.28a.27.27 0 0 0 .013-.167c-.562-2.506-2.834-4.375-5.55-4.375-2.504 0-4.628 1.592-5.388 3.8a2.6 2.6 0 0 0-1.793-.49c-1.203.117-2.167 1.065-2.286 2.25a2.6 2.6 0 0 0 .063.878C1.57 13.153 0 14.731 0 16.677q.002.26.035.519a.17.17 0 0 0 .169.145h15.981a.22.22 0 0 0 .204-.152z" fill="#f6821f"/></symbol>
<symbol id="i-brand-github" viewBox="0 0 20 20"><path d="M10 0a10 10 0 0 0-3.162 19.487c.5.088.687-.212.687-.475 0-.237-.012-1.025-.012-1.862-2.513.462-3.163-.613-3.363-1.175a3.64 3.64 0 0 0-1.025-1.413c-.35-.187-.85-.65-.013-.662a2 2 0 0 1 1.538 1.025 2.135 2.135 0 0 0 2.912.825 2.1 2.1 0 0 1 .638-1.338c-2.225-.25-4.55-1.112-4.55-4.937a3.9 3.9 0 0 1 1.025-2.688 3.6 3.6 0 0 1 .1-2.65s.837-.262 2.75 1.025a9.43 9.43 0 0 1 5 0c1.912-1.3 2.75-1.025 2.75-1.025a3.6 3.6 0 0 1 .1 2.65A3.87 3.87 0 0 1 16.4 9.475c0 3.837-2.338 4.687-4.562 4.937a2.37 2.37 0 0 1 .674 1.85c0 1.338-.012 2.413-.012 2.75 0 .263.187.575.687.475A10.005 10.005 0 0 0 10 0" fill="currentColor"/></symbol>
<symbol id="i-brand-google" viewBox="0 0 24 24"><path d="M22.56 12.25c0-.78-.07-1.53-.2-2.25H12v4.255h5.92a5.06 5.06 0 0 1-2.195 3.32v2.76h3.555c2.08-1.915 3.28-4.735 3.28-8.085" fill="#4285f4"/><path d="M12 23c2.97 0 5.46-.985 7.28-2.665l-3.555-2.76c-.985.66-2.245 1.05-3.725 1.05-2.865 0-5.29-1.935-6.155-4.535H2.17v2.85A11 11 0 0 0 12 23" fill="#34a853"/><path d="M5.845 14.09A6.6 6.6 0 0 1 5.5 12c0-.725.125-1.43.345-2.09V7.06H2.17A11 11 0 0 0 1 12c0 1.775.425 3.455 1.17 4.94z" fill="#fbbc05"/><path d="M12 5.375c1.615 0 3.065.555 4.205 1.645l3.155-3.155C17.455 2.09 14.965 1 12 1 7.7 1 3.98 3.465 2.17 7.06l3.675 2.85C6.71 7.31 9.135 5.375 12 5.375" fill="#ea4335"/></symbol>
<symbol id="i-brand-namecheap" viewBox="0 0 24 24"><path d="M20.944 5.902a2.06 2.06 0 0 0-1.8 1.06l-.043.086-1.604 3.183-2.042 4.023 1.338 2.636.073.144c.206.365.517.66.893.846a2.1 2.1 0 0 0 .892-.846l.073-.144 4.008-7.907.097-.191a2.058 2.058 0 0 0-1.882-2.88zM8.558 9.732 7.223 7.113 7.15 6.97a2.07 2.07 0 0 0-.89-.843 2.07 2.07 0 0 0-.89.84l-.076.147-4.013 7.9-.097.188a2.057 2.057 0 0 0 3.68 1.832l.045-.084 1.615-3.182 2.04-4.021z" fill="#ff5100"/><path d="M20.939 5.902a2.06 2.06 0 0 0-1.798 1.06l-.045.086-1.615 3.183-2.044 4.023 1.34 2.636.073.144c.206.366.517.66.893.846.376-.186.687-.48.892-.846l.076-.144 4.02-7.907.095-.191a2.057 2.057 0 0 0-1.882-2.88z" fill="url(#a)"/><path d="M3.064 18.094a2.06 2.06 0 0 0 1.798-1.047l.045-.086 1.617-3.183 2.042-4.023-1.338-2.65-.073-.143a2.1 2.1 0 0 0-.895-.846 2.1 2.1 0 0 0-.893.846l-.073.144-4.026 7.907-.097.191a2.057 2.057 0 0 0 1.882 2.88z" fill="url(#b)"/><path d="M8.558 9.731 7.223 7.114 7.15 6.97a2.1 2.1 0 0 0-.893-.846q.188-.091.39-.146.258-.066.524-.066h2.795a2.07 2.07 0 0 1 1.796 1.047l.073.144 3.615 7.162 1.332 2.617.073.144c.208.37.523.667.904.854-.284.137-.594.21-.909.212h-2.81a2.07 2.07 0 0 1-1.793-1.047l-.076-.144z" fill="#ff8c44"/><defs><linearGradient id="a" x1="283.104" y1="1143.22" x2="750.826" y2="140.259" gradientUnits="userSpaceOnUse"><stop stop-color="#d4202c"/><stop offset=".1" stop-color="#dc3d29" stop-opacity=".79"/><stop offset=".2" stop-color="#e45926" stop-opacity=".58"/><stop offset=".32" stop-color="#ea7123" stop-opacity=".4"/><stop offset=".43" stop-color="#f08521" stop-opacity=".25"/><stop offset=".55" stop-color="#f4941f" stop-opacity=".14"/><stop offset=".68" stop-color="#f79f1e" stop-opacity=".06"/><stop offset=".82" stop-color="#f8a51d" stop-opacity=".02"/><stop offset="1" stop-color="#f9a71d" stop-opacity="0"/></linearGradient><linearGradient id="b" x1="489.91" y1="66.58" x2="22.137" y2="1069.65" gradientUnits="userSpaceOnUse"><stop stop-color="#d4202c"/><stop offset=".1" stop-color="#dc3d29" stop-opacity=".79"/><stop offset=".2" stop-color="#e45926" stop-opacity=".58"/><stop offset=".32" stop-color="#ea7123" stop-opacity=".4"/><stop offset=".43" stop-color="#f08521" stop-opacity=".25"/><stop offset=".55" stop-color="#f4941f" stop-opacity=".14"/><stop offset=".68" stop-color="#f79f1e" stop-opacity=".06"/><stop offset=".82" stop-color="#f8a51d" stop-opacity=".02"/><stop offset="1" stop-color="#f9a71d" stop-opacity="0"/></linearGradient></defs></symbol>
<symbol id="i-brand-namesilo" viewBox="0 0 24 24"><path d="M12 24c6.627 0 12-5.373 12-12S18.627 0 12 0 0 5.373 0 12s5.373 12 12 12" fill="#031b4e"/><path d="M15.656 9.738c0 .39-1.638.708-3.656.708s-3.656-.319-3.656-.708v1.992c0 .401 1.638.72 3.656.72s3.656-.319 3.656-.72zM12 13.041c2.018 0 3.656-.32 3.656-.708v2.004c0 .389-1.638.707-3.656.707s-3.656-.318-3.656-.707v-2.004c0 .389 1.638.707 3.656.707m3.656 1.886c0 .39-1.638.708-3.656.708s-3.656-.319-3.656-.708v2.004c0 .39 1.638.708 3.656.708s3.656-.319 3.656-.708zm0-6.958L12 5.61 8.344 7.969v1.298c0 .33 1.638.59 3.656.59s3.656-.26 3.656-.59z" fill="#fff"/></symbol>
<symbol id="i-mono-alert" viewBox="0 0 20 20"><path d="M11 11H9V5h2m0 10H9v-2h2M10 0a10 10 0 1 0 0 20 10 10 0 0 0 0-20" fill="currentColor"/></symbol>
<symbol id="i-mono-check-status" viewBox="0 0 20 20"><path d="M10.95 15.95h-2v-2h2zm0-3h-2c0-3.25 3-3 3-5 0-1.1-.9-2-2-2s-2 .9-2 2h-2c0-2.21 1.79-4 4-4s4 1.79 4 4c0 2.5-3 2.75-3 5m9-3c0 5.18-3.95 9.45-9 9.95v-2.01c3.95-.49 7-3.86 7-7.94s-3.05-7.45-7-7.94V0c5.05.5 9 4.77 9 9.95M8.95 0v2.01c-1.46.18-2.8.76-3.91 1.62L3.62 2.21C5.1 1 6.95.2 8.95 0M2.01 8.95H0c.2-2 1-3.85 2.21-5.33l1.42 1.43a7.9 7.9 0 0 0-1.62 3.9m6.94 8.94v2.01c-2-.2-3.85-.99-5.33-2.21l1.42-1.42c1.11.86 2.45 1.44 3.91 1.62M0 10.95h2.01c.18 1.46.76 2.8 1.62 3.91l-1.42 1.42A10 10 0 0 1 0 10.95" fill="currentColor"/></symbol>
<symbol id="i-mono-chevron-down" viewBox="0 0 20 20"><path d="M5.41 6.29 10 10.88l4.59-4.59L16 7.71l-6 6-6-6z" fill="currentColor"/></symbol>
<symbol id="i-mono-chevron-up" viewBox="0 0 20 20"><path d="M5.41 13.705 10 9.125l4.59 4.58 1.41-1.41-6-6-6 6z" fill="currentColor"/></symbol>
<symbol id="i-mono-close" viewBox="0 0 20 20"><path d="M17 4.41L15.59 3L10 8.59L4.41 3L3 4.41L8.59 10L3 15.59L4.41 17L10 11.41L15.59 17L17 15.59L11.41 10L17 4.41Z" fill="currentColor"/></symbol>
<symbol id="i-mono-confused" viewBox="0 0 20 20"><path d="M10 0a10 10 0 1 0 0 20 10 10 0 0 0 0-20M6.5 6A1.5 1.5 0 1 1 5 7.5 1.54 1.54 0 0 1 6.5 6m8.5 8h-4a4 4 0 0 0-3.47 2L5.8 15a6 6 0 0 1 5.2-3h4m-1.5-3A1.5 1.5 0 1 1 15 7.5 1.54 1.54 0 0 1 13.5 9" fill="currentColor"/></symbol>
<symbol id="i-mono-copy" viewBox="0 0 19 22"><path d="M17 20H6V6h11m0-2H6a2 2 0 0 0-2 2v14a2 2 0 0 0 2 2h11a2 2 0 0 0 2-2V6a2 2 0 0 0-2-2m-3-4H2a2 2 0 0 0-2 2v14h2V2h12z" fill="currentColor"/></symbol>
<symbol id="i-mono-delete" viewBox="0 0 14 18"><path d="M14 1h-3.5l-1-1h-5l-1 1H0v2h14M1 16a2 2 0 0 0 2 2h8a2 2 0 0 0 2-2V4H1z" fill="currentColor"/></symbol>
<symbol id="i-mono-dns" viewBox="0 0 20 20"><path d="M5.824 18.332a9.3 9.3 0 0 0 3.718.754V17.65q-3.45-.034-5.778-2.403-2.329-2.369-2.33-5.704 0-.456.065-.91.065-.455.141-.916l4.885 4.885h.988V9.543H5.479v-2.03h2.032a1 1 0 0 0 .73-.296 1 1 0 0 0 .296-.734V4.475h2.012q.84 0 1.437-.597.595-.597.595-1.434v-.431a7.9 7.9 0 0 1 3.25 2.401 8.05 8.05 0 0 1 1.665 3.648h1.466q-.525-3.443-3.175-5.75Q13.132 0 9.546 0a9.25 9.25 0 0 0-3.722.753 9.6 9.6 0 0 0-3.03 2.042 9.8 9.8 0 0 0-2.043 3.03 9.25 9.25 0 0 0-.75 3.716q0 1.978.75 3.72a9.6 9.6 0 0 0 2.044 3.029 9.8 9.8 0 0 0 3.03 2.042" fill="currentColor"/><path d="m10.668 13.95 1.511 1.512.893-.892-1.509-1.51a1.73 1.73 0 0 1-.526-1.263q0-.735.525-1.26t1.26-.524q.736 0 1.263.525l1.507 1.51.893-.892-1.51-1.513a2.94 2.94 0 0 0-2.152-.894 2.93 2.93 0 0 0-2.152.893 2.94 2.94 0 0 0-.895 2.155q0 1.26.892 2.154" fill="currentColor"/><path d="m13.688 11.847-.816.816 3.216 3.217.815-.817z" fill="currentColor"/><path d="m14.182 15.678-.893.893 1.512 1.512a2.94 2.94 0 0 0 2.151.894 2.93 2.93 0 0 0 2.153-.892A2.94 2.94 0 0 0 20 15.93a2.94 2.94 0 0 0-.893-2.154l-1.512-1.51-.892.892 1.51 1.51q.525.524.525 1.262 0 .733-.525 1.26-.525.525-1.26.525t-1.262-.527l-1.508-1.508z" fill="currentColor"/></symbol>
<symbol id="i-mono-dots-vertical" viewBox="0 0 20 20"><path d="M10 14a2 2 0 1 1 0 4 2 2 0 0 1 0-4m0-6a2 2 0 1 1 0 4 2 2 0 0 1 0-4m0-6a2 2 0 1 1 0 4 2 2 0 0 1 0-4" fill="currentColor"/></symbol>
<symbol id="i-mono-eye" viewBox="0 0 24 24"><path fill="currentColor" d="M12 9a3 3 0 0 0-3 3 3 3 0 0 0 3 3 3 3 0 0 0 3-3 3 3 0 0 0-3-3m0 8a5 5 0 0 1-5-5 5 5 0 0 1 5-5 5 5 0 0 1 5 5 5 5 0 0 1-5 5m0-12.5C7 4.5 2.73 7.61 1 12c1.73 4.39 6 7.5 11 7.5s9.27-3.11 11-7.5c-1.73-4.39-6-7.5-11-7.5"/></symbol>
<symbol id="i-mono-filter" viewBox="0 0 20 20"><path d="M4 11h12V9H4M1 4v2h18V4M8 16h4v-2H8z" fill="currentColor"/></symbol>
<symbol id="i-mono-info" viewBox="0 0 20 20"><path d="M11 7H9V5h2m0 10H9V9h2m-1-9a10 10 0 1 0 0 20 10 10 0 0 0 0-20" fill="currentColor"/></symbol>
<symbol id="i-mono-logs" viewBox="0 0 23 20"><path d="M3 0v6H1V0zM1 20h2v-6H1zm3-10a2 2 0 1 0-2 2c1.11 0 2-.89 2-2m19-6v12c0 1.11-.89 2-2 2H9a2 2 0 0 1-2-2v-4l-2-2 2-2V4a2 2 0 0 1 2-2h12c1.11 0 2 .89 2 2m-5 7h-8v2h8zm2-4H10v2h10z" fill="currentColor"/></symbol>
<symbol id="i-mono-pause" viewBox="0 0 20 20"><path d="M13 14h-2V6h2m-4 8H7V6h2m1-6a10 10 0 1 0 0 20 10 10 0 0 0 0-20" fill="currentColor"/></symbol>
<symbol id="i-mono-pencil-circle" viewBox="0 0 20 20"><path d="M10 0C4.47 0 0 4.47 0 10s4.47 10 10 10 10-4.47 10-10S15.53 0 10 0m3.1 5.07c.14 0 .28.05.4.16l1.27 1.27c.23.22.23.57 0 .78l-1 1-2.05-2.05 1-1c.1-.11.24-.16.38-.16m-1.97 1.74 2.06 2.06-6.06 6.06H5.07v-2.06z" fill="currentColor"/></symbol>
<symbol id="i-mono-plus" viewBox="0 0 20 20"><path d="M17 11h-6v6H9v-6H3V9h6V3h2v6h6z" fill="currentColor"/></symbol>
<symbol id="i-mono-prod" viewBox="0 0 20 20"><path d="M10.95 0v2.02c4.39.54 7.5 4.53 6.96 8.92-.46 3.64-3.32 6.53-6.96 6.96v2c5.5-.55 9.5-5.43 8.95-10.93-.45-4.75-4.22-8.5-8.95-8.97m-2 .03C7 .22 5.14.97 3.62 2.23l1.43 1.48c1.12-.9 2.47-1.48 3.9-1.68zM2.21 3.64A9.9 9.9 0 0 0 0 8.97h2c.19-1.42.75-2.77 1.64-3.9zm-2.2 7.33c.2 1.96.97 3.81 2.21 5.33l1.42-1.43a8 8 0 0 1-1.63-3.9zm5.04 5.37-1.43 1.37a10 10 0 0 0 5.33 2.26v-2a8 8 0 0 1-3.9-1.63m9.72-3.18-4.11-4.11c.41-1.04.18-2.26-.68-3.11-.9-.91-2.25-1.09-3.34-.59l1.94 1.94-1.35 1.36L5.24 6.7c-.54 1.09-.29 2.44.59 3.35.86.86 2.08 1.08 3.12.68l4.11 4.1c.18.19.45.19.63 0l1.04-1.03c.22-.18.22-.5.04-.64" fill="currentColor"/></symbol>
<symbol id="i-mono-project" viewBox="0 0 20 15"><path d="M9.968 4.398v8.448l6.561-1.277V7.454c0-.173.147-.306.314-.287l.807.128c.142.017.249.14.249.287v4.78a.29.29 0 0 1-.222.283l-7.183 1.583a2.5 2.5 0 0 1-1.053.002l-7.106-1.532a.29.29 0 0 1-.223-.274l-.123-4.856a.286.286 0 0 1 .257-.295l6.036-.544a.28.28 0 0 0 .235-.177l.91-2.263c.117-.292.54-.206.54.11M1.92 1.633.027 5.783c-.093.202.066.43.283.408l7.113-.736c.1-.01.188-.076.229-.17L9.941 0 2.125 1.471a.28.28 0 0 0-.204.162M9.941 0l2.422 5.45a.28.28 0 0 0 .233.168l7.1.585c.214.018.367-.207.278-.407l-1.851-4.16a.28.28 0 0 0-.206-.165z" fill="currentColor"/></symbol>
<symbol id="i-mono-refresh" viewBox="0 0 20 20"><path d="M15.65 4.35A7.96 7.96 0 0 0 10 2a8 8 0 1 0 0 16c3.73 0 6.84-2.55 7.73-6h-2.08A5.99 5.99 0 0 1 10 16a6 6 0 1 1 0-12c1.66 0 3.14.69 4.22 1.78L11 9h7V2z" fill="currentColor"/></symbol>
<symbol id="i-mono-search" viewBox="0 0 20 20"><path d="M1.864 10.91H0V9.09h1.864A8.18 8.18 0 0 1 9.09 1.865V0h1.818v1.864a8.18 8.18 0 0 1 7.227 7.227H20v1.818h-1.864a8.18 8.18 0 0 1-7.227 7.227V20H9.091v-1.864a8.18 8.18 0 0 1-7.227-7.227M10 3.635a6.364 6.364 0 1 0 0 12.728 6.364 6.364 0 0 0 0-12.728" fill="currentColor"/></symbol>
<symbol id="i-mono-staging" viewBox="0 0 22 19"><path d="M0 19h22L11 0" fill="currentColor"/></symbol>
<symbol id="i-mono-success" viewBox="0 0 20 20"><path d="M10 0C4.5 0 0 4.5 0 10s4.5 10 10 10 10-4.5 10-10S15.5 0 10 0M8 15l-5-5 1.41-1.41L8 12.17l7.59-7.59L17 6z" fill="currentColor"/></symbol>
<symbol id="i-mono-sync" viewBox="0 0 20 20"><path d="M0 10a10 10 0 1 0 20 0 10 10 0 0 0-20 0m13.6 1.72A4 4 0 0 0 14 10a4 4 0 0 0-4-4v2L6.88 5 10 2v2a6 6 0 0 1 6 6 5.9 5.9 0 0 1-.93 3.19M4 10a5.9 5.9 0 0 1 .93-3.19L6.4 8.28A4 4 0 0 0 6 10a4 4 0 0 0 4 4v-2l3 3-3 3v-2a6 6 0 0 1-6-6" fill="currentColor"/></symbol>
<symbol id="i-mono-theme-light-dark" viewBox="0 0 24 24"><path fill="currentColor" d="M7.5 2c-1.79 1.15-3 3.18-3 5.5s1.21 4.35 3.03 5.5C4.46 13 2 10.54 2 7.5A5.5 5.5 0 0 1 7.5 2m11.57 1.5 1.43 1.43L4.93 20.5 3.5 19.07zm-6.18 2.43L11.41 5 9.97 6l.42-1.7L9 3.24l1.75-.12.58-1.65L12 3.1l1.73.03-1.35 1.13zm-3.3 3.61-1.16-.73-1.12.78.34-1.32-1.09-.83 1.36-.09.45-1.29.51 1.27 1.36.03-1.05.87zM19 13.5a5.5 5.5 0 0 1-5.5 5.5c-1.22 0-2.35-.4-3.26-1.07l7.69-7.69c.67.91 1.07 2.04 1.07 3.26m-4.4 6.58 2.77-1.15-.24 3.35zm4.33-2.7 1.15-2.77 2.2 2.54zm1.15-4.96-1.14-2.78 3.34.24zM9.63 18.93l2.77 1.15-2.53 2.19z"/></symbol>
</svg>
