<svg width="36" height="36" viewBox="0 0 36 36" fill="none" xmlns="http://www.w3.org/2000/svg"><g clip-path="url(#a)"><path d="M27.44 19.357c-2.83-2.73-4-2.376-4.407-2.349-3.573.245-2.675 4.408-2.394 5.487.28 1.088 2.294 5.777 4.108 5.831 1.805.055 3.174-1.251 3.555-1.75.38-.508 1.968-4.489-.87-7.228z" fill="#000"/><path d="M23.768 24.79a2.1 2.1 0 0 1-1.034-.263 1.8 1.8 0 0 1-.345-.236c-.054-.046-.108-.09-.154-.145a2.16 2.16 0 0 1 1.524-3.69c1.188 0 2.167.97 2.167 2.166a2.16 2.16 0 0 1-2.167 2.16z" fill="#000"/><path d="M25 22.83a1.53 1.53 0 0 1-1.477 1.56h-.082A1.52 1.52 0 1 1 25 22.83" fill="#000"/><path d="M23.768 20.464a2.16 2.16 0 0 0-1.524 3.69c.055.055.1.1.155.146.108.09.217.163.344.236a2.165 2.165 0 0 0 3.2-1.895c0-1.189-.97-2.168-2.166-2.168zm-.245 3.927h-.081a1.522 1.522 0 0 1-.505-2.94c.187-.072.386-.105.586-.099a1.515 1.515 0 0 1 1.059 2.562 1.53 1.53 0 0 1-1.06.477" fill="#fff"/><path d="M25 22.83a1.53 1.53 0 0 1-1.477 1.56h-.082A1.52 1.52 0 1 1 25 22.83" fill="#fff"/><path d="M12.622 21.352a1.514 1.514 0 0 0-1.14 2.563 1.53 1.53 0 0 0 1.059.476h.081a1.52 1.52 0 0 0 0-3.039m22.473-14.22c-3.927-5.006-9.287.39-9.287.39 5.514 3.437 7.147 8.96 7.147 8.96 1.297-1.179 4.643-6.03 2.14-9.35m-34.19 0c-2.503 3.32.843 8.171 2.14 9.35 0 0 1.633-5.523 7.147-8.96 0 0-5.37-5.405-9.296-.39zm22.618 14.22a1.52 1.52 0 0 0-1.56 1.48 1.53 1.53 0 0 0 1.478 1.56h.082a1.52 1.52 0 0 0 0-3.04m.39.79a.34.34 0 0 1 .335-.336.34.34 0 0 1 .336.335.34.34 0 0 1-.335.336.34.34 0 0 1-.336-.335m.58.97a.244.244 0 0 1-.172-.42.245.245 0 1 1 .172.42" fill="#000"/><path d="M13.112 17.008c-.4-.027-1.57-.38-4.408 2.35s-1.25 6.72-.87 7.218c.381.498 1.75 1.805 3.564 1.75 1.805-.054 3.818-4.752 4.1-5.83.28-1.08 1.178-5.252-2.395-5.488z" fill="#000"/><path d="M12.377 24.79a2.12 2.12 0 0 1-1.377-.5c-.055-.046-.11-.09-.155-.145a2.161 2.161 0 0 1 1.524-3.69c1.188 0 2.168.97 2.168 2.166a2.16 2.16 0 0 1-2.168 2.16z" fill="#000"/><path d="M12.377 20.464a2.16 2.16 0 0 0-1.523 3.69c.054.055.1.1.154.146.11.09.217.163.344.236a2.164 2.164 0 0 0 3.201-1.895c0-1.189-.97-2.168-2.167-2.168zm.245 3.927h-.082a1.514 1.514 0 0 1-1.478-1.56 1.51 1.51 0 0 1 1.56-1.479c.807.018 1.46.671 1.478 1.48a1.525 1.525 0 0 1-1.478 1.56" fill="#fff"/><path d="M14.1 22.83a1.525 1.525 0 0 1-1.478 1.56h-.081a1.514 1.514 0 0 1-1.479-1.56 1.51 1.51 0 0 1 1.56-1.478A1.515 1.515 0 0 1 14.1 22.83" fill="#fff"/><path d="M12.622 21.352a1.516 1.516 0 0 0-1.56 1.478 1.53 1.53 0 0 0 1.48 1.56h.08a1.52 1.52 0 0 0 0-3.038m-.96 1.76a.244.244 0 0 1-.246-.245c0-.136.11-.245.245-.245a.244.244 0 0 1 .094.47.2.2 0 0 1-.094.02m.235-.636a.34.34 0 0 1-.336-.336.34.34 0 0 1 .336-.335.34.34 0 0 1 .335.335.34.34 0 0 1-.335.336m6.04 5.768s-3.664-.11-3.247.997 3.247 1.86 3.247 1.86c1.052-.091 3.274-1.007 3.328-1.996.063-.98-3.328-.861-3.328-.861" fill="#000"/></g><defs><clipPath id="a"><path fill="#fff" d="M0 0h36v36H0z"/></clipPath></defs></svg>