<svg viewBox="0 0 52 52" fill="none" xmlns="http://www.w3.org/2000/svg"><path d="M41.225 24.08c-.122 0-.229.09-.274.21l-.732 2.505c-.32 1.08-.198 2.07.335 2.805.488.675 1.311 1.065 2.302 1.11l3.993.24a.35.35 0 0 1 .29.15c.06.09.075.225.045.33a.51.51 0 0 1-.442.33l-4.16.24c-2.256.105-4.68 1.89-5.533 4.08l-.305.765c-.06.15.046.3.214.3h14.295c.168 0 .32-.105.366-.27a10 10 0 0 0 .38-2.73c0-5.55-4.602-10.08-10.256-10.08-.167 0-.35 0-.518.015" fill="#fbad41"/><path d="M35.769 35.9c.32-1.08.198-2.07-.335-2.805-.488-.675-1.31-1.065-2.301-1.11l-18.761-.24a.35.35 0 0 1-.29-.15.4.4 0 0 1-.046-.33.51.51 0 0 1 .442-.33l18.929-.24c2.24-.105 4.679-1.89 5.532-4.08l1.082-2.775a.6.6 0 0 0 .03-.36C38.833 18.05 33.91 14 28.028 14 22.602 14 18 17.45 16.354 22.235a5.66 5.66 0 0 0-3.886-1.065c-2.607.255-4.694 2.31-4.954 4.875a5.6 5.6 0 0 0 .138 1.905C3.399 28.07 0 31.49 0 35.705c0 .375.03.75.076 1.125.03.18.183.315.366.315h34.626a.47.47 0 0 0 .442-.33z" fill="#f6821f"/></svg>